<svg xmlns="http://www.w3.org/2000/svg" width="500" height="490"><path d="M282 3c4.50584021 2.01577062 6.49876949 4.83128248 9 9 3.97526513-.61788382 3.97526513-.61788382 7.89624023-1.50170898C307.43607606 8.47556792 316.7107044 8.70540066 325.4375 8.5625l3.44726562-.13867188C337.59760666 8.30951247 343.57032344 10.51382298 351 15v2l2.0625.5c11.21595781 5.72729761 15.62548985 19.86681924 19.3125 31.0625 1.99376779 6.25746716 2.96876357 11.49980401 2.51171875 18.1015625.17606019 3.63048245 1.96689221 6.01807234 3.8828125 9.0234375 1.81694323 3.41469966 2.15524011 6.83759724 2.69140625 10.6328125.54665451 2.71742751 1.41947805 4.62724496 2.7265625 7.0546875 3.4298472 7.14124902 1.70685199 15.39144765-.625 22.6875-.78634359 2.1449477-1.60051734 4.0014774-2.76953125 5.96875L380 124c1.54872544 3.2001433 1.54872544 3.2001433 2.859375 5.12109375C386.3765099 134.91473035 386.76811109 140.36387747 386 147c-.8993254 2.6236841-1.98442135 5.09048897-3.125 7.6171875-.90547174 2.46579357-1.02833245 4.03574413-.875 6.6328125.64007056 14.54240306-8.4056717 27.59437377-15.6640625 39.48046875-1.5958573 2.71109091-2.96506574 5.49696213-4.33203125 8.328125-1.09937377 2.12602633-2.33732693 4.11434376-3.62890625 6.12890625C354.45018615 221.40682041 354 224.09616185 354 232l32 1 1 7 5 1v16h-23v11l3.24609375-.03515625c1.39713368-.00937674 2.79426924-.01847706 4.19140625-.02734375l2.14257812-.02539062C380.38693559 267.90346412 382.19387603 267.94779989 384 268c1 1 1 1 1.0625 4.5625L385 276h6c.22126178 2.45779976.42750395 4.91527648.625 7.375l.1953125 2.1171875c.14088489 1.83150361.16730409 3.67093998.1796875 5.5078125-2 2-2 2-4.15478516 2.22705078l-2.63427734-.03173828-2.8515625-.01953125L379.375 293.125l-3.0078125-.02734375C373.91135612 293.07404249 371.45564826 293.0381707 369 293v15h18l1 6 6 1v17h-46v-7l-7-1c-.04657675-11.4754644-.08199693-22.95090588-.10362434-34.42644596-.01038607-5.32997218-.02444941-10.65987914-.04725457-15.98981381-.02191463-5.15474007-.03372852-10.30941786-.03887558-15.46420097-.00366263-1.95532841-.01081357-3.91065385-.02170562-5.86595535-.05433678-10.16944924.1404716-20.02659142 1.75488662-30.0808239.75399713-5.23957696.74777277-10.45145264.70657349-15.73526001l.0234375-3.11132812C343.25993573 198.11111416 343.00751401 193.87825904 341 189c-.46437077-1.42252245-.92209612-2.84722278-1.375-4.2734375-1.63141707-4.8922017-3.59262228-9.61444149-5.625-14.3515625l-1.0390625-2.4453125c-.67059178-1.57665854-1.34320737-3.15245818-2.01806641-4.72729492-.60479687-1.41270653-1.20632957-2.82681756-1.80371093-4.24267578C325.6724012 150.76350771 320.19037684 143.09518842 312 139v-2l-2.1015625-.75390625c-4.48572123-1.9284974-8.43959891-4.65125049-12.546875-7.2734375C286.49493348 122.5826823 277.03721372 122.12920007 265 125l-3.625 1.10546875c-5.25561904 1.32023125-10.33126903.77834857-15.6875.39453125-7.80838043-.43940148-15.40292135-.57132673-23.1875.25l-2.2590332.22460938C215.1444938 127.59116961 210.73891048 129.07433524 206 131c-1.66276298.57393666-3.32864519 1.1390867-5 1.6875l-2.3125.76171875L197 134v2h-2l-.8046875 2.19140625c-1.20532219 2.83211326-2.62207493 5.18293983-4.3203125 7.74609375L188 148.89453125c-1.31596471 2.04334364-2.66962219 4.06297775-4.0625 6.0546875C173.54942171 170.94449839 172.59128416 191.41672755 171 210c-.22660279 1.81282233-.45525201 3.62539225-.6875 5.4375-.56999144 5.55250286.07021613 11.03543518.6875 16.5625l1.90625.296875C184.97488559 234.4052511 191.51347237 239.33501556 199 249v2h2c.67812114 1.8708878 1.3419946 3.74694293 2 5.625l1.125 3.1640625C206.17347729 267.30624254 204.07816019 273.09522285 201 280c-2.27258422 3.40887633-4.61830334 5.70527727-8 8 1.1290641 2.44630556 2.35372937 4.49065687 3.9375 6.6875C203.525528 305.26827224 205.41055341 319.77099253 207 332c-3.458176.0868329-6.91607344.14033282-10.375.1875l-2.984375.07617188-2.8515625.02929687-2.63427734.04760742L186 332c-2-3-2-3-2-7l-2.375-.25C179 324 179 324 177.90283203 322.27832031c-.99033587-2.49913854-1.51127-4.83336467-1.97314453-7.48144531l-.52734375-2.96875L174.875 308.75l-.55078125-3.125c-.44698303-2.54074567-.88817409-5.08235822-1.32421875-7.625l-4-1 .01586914 3.10522461c.01805055 3.78872815.02956306 7.57745248.0390625 11.36621094.0050401 1.64225909.01187214 3.28451368.02050781 4.92675781.01207981 2.35556143.01779194 4.71106373.0222168 7.06665039l.01564026 2.23802185C169.1134925 327.46898088 169.06194719 329.23497146 169 331c-1.58937556 1.58937556-3.23899846 1.12981143-5.4375 1.1328125l-2.7109375.00390625L158 332.125l-2.8515625.01171875-2.7109375-.00390625-2.50390625-.00341797C148 332 148 332 147 331c-.04080783-1.99958364-.04254356-4.00045254 0-6l-2.4375-.4375C142 324 142 324 141 323c-.11111154-2.69224574-.15739392-5.35907837-.16113281-8.05224609l-.01504517-2.55723572c-.01466069-2.80466005-.02143014-5.60926354-.02694702-8.41395569a608907.24322809 608907.24322809 0 0 0-.01727295-5.82583618c-.01052116-4.07726304-.0163565-8.15450629-.01983643-12.23178101-.00548663-5.23151024-.0295136-10.46276044-.05797195-15.69418907-.01859898-4.01308398-.02383052-8.02610499-.02536392-12.03922844-.00303334-1.92896699-.01108467-3.85793271-.02418518-5.7868576-.01700321-2.69608103-.01519438-5.39152256-.00868988-8.08763504l-.02792359-2.42774964c.04065064-5.36283326.04065064-5.36283326 1.69692994-7.8707428 2.81280415-1.68781475 5.64478708-1.55187062 8.87493896-1.70004272l3.85546875-.19921875L158 232c-.31014392-2.08368538-.6232052-4.16693668-.9375-6.25l-.52734375-3.515625c-.4502685-3.09009753-.4502685-3.09009753-1.1640625-5.46875C155 215 155 215 156 212l-1.7578125-.078125C148.78846817 211.52589538 145.23063728 210.73870272 141 207c-3.44775317-4.44578698-4.17622795-6.85001964-3.8125-12.4375.15118256-3.34434154.17634729-5.00080472-1.66015625-7.8359375-1.25572576-1.34597299-2.53430574-2.67102449-3.8359375-3.97265625C128.76799111 179.72246653 128 176.80629312 128 172.65234375l.0625-2.58984375c.11292108-4.72857034-1.09654835-7.73740636-3.0625-12.0625-1.56364677-6.37041277-.96964099-11.1759196 2-17l1.75-2.6875c1.45914357-2.24117616 1.45914357-2.24117616 1.1875-4.8125-.81865721-2.6367005-.81865721-2.6367005-2.93359375-4.75390625C123.55182407 124.01546261 123.70488397 118.70797587 124 113c1.82877152-4.0964482 3.50147536-5.64106226 7.125-8.25 3.44695862-3.29709085 4.25924591-5.5067668 4.96484375-10.14453125-.13141773-3.8111141-1.71625025-6.09483476-3.7734375-9.22265625C130.02171136 81.22921048 129.58335406 76.65812572 129 72l-3-1c-.88028578-3.08100023-1.18714203-4.54865745.0625-7.5625L127 61l-.921875-1.6328125c-1.58551118-3.48123106-1.40684444-6.92650812-1.390625-10.6796875l-.04882812-2.22460938c-.00565226-6.37008906 1.6416571-10.72415528 5.04882812-16.15039062 5.07910733-5.07910733 12.42035908-7.27282784 19.125-9.5l2.36669922-.79150391C157.08775687 18.12308096 162.76613878 17.02746194 169 17v-2c3.95363468-4.42230262 8.08468427-7.04932426 14-8 4.86345894.25155822 8.01365025 1.23170156 12 4l3 2 2.1875-1.9375c4.5193549-3.31419359 8.87972583-3.2181618 14.375-3.25l3.37890625-.04296875C220.93387355 7.99501729 222.5846428 8.24900678 225 10c1.25 3.625 1.25 3.625 2 7l2.125-1.9375c3.19438309-2.29162265 4.96295445-2.98099905 8.875-3.0625 4.58863887 2.37266205 8.06335804 5.66728469 11.81640625 9.16015625C253.41991014 24.19638225 255.21139054 25 260 25c1.40178855-1.61653275 1.40178855-1.61653275 2.4375-3.75 2.09274325-3.64150125 4.1308004-5.76201779 7.5625-8.25l2.5-2.5c2.90227945-2.90227945 5.80812854-5.65406427 9.5-7.5ZM178 16v2l11-1v-3c-4.76837457-1.21981675-7.09100481-1.10420207-11 2Zm30-1v2c3.73486879.5745952 7.21293268 1 11 1v-3c-1.45736087-.19491452-2.91594593-.38069358-4.375-.5625l-2.4609375-.31640625C209.95100814 13.81762672 209.95100814 13.81762672 208 15Zm88 6c-.07845557 3.21229742-.07606273 5.93613665 1 9 2.74436481 2.0803108 5.74806642 2.95285634 9 4 1.25536092.59294715 2.50603722 1.19599862 3.75 1.8125 3.50293119 1.27991716 4.82011273 1.54140287 8.25.1875l2.375-1.9375c5.28681309-4.15392457 10.75190616-4.29922789 17.25-3.75l3.8515625.30078125C345 31 345 31 347.7109375 31.60546875 350.15874943 32.02736125 351.66462942 31.77845686 354 31c-1.38440658-1.63474589-2.78303245-3.25745662-4.1875-4.875l-2.35546875-2.7421875c-4.58659888-4.44805296-9.12188159-4.68350468-15.28515625-4.6484375l-2.26800537-.00579834c-1.5801019-.00135702-3.16021513.0023056-4.74029541.01068115-2.39202614.01064629-4.78329095.00011987-7.17529297-.01269531C310.43269247 18.72064026 303.31448176 18.87644078 296 21Zm-111.58178711 5.31738281c-1.39476955.03816413-2.7896333.07303853-4.18457031.10449219-22.78263588-.03587399-22.78263588-.03587399-42.93286133 9.0390625C133.80345565 40.49217783 134.47892086 47.15707986 135 53l1 3 1.7578125-.5859375c1.6265655-.5421885 3.25423524-1.08107201 4.8828125-1.6171875 1.76095419-.59475936 3.50349091-1.24457253 5.234375-1.921875C154.41291085 50.04438496 161.24396544 49.94038793 168 50l1.1015625-2.484375L170.625 44.25l1.4765625-3.234375C174.37923306 37.39759688 176.17256582 35.90011246 180 34c2.87248688-.36700788 5.2738039-.52512998 8.125-.4375l2.25048828.03125c5.65833681.16588355 10.87261327 1.11598529 16.30419922 2.75 2.39955115.79232634 2.39955115.79232634 5.3203125.65625v2c2.37305578.41780879 2.37305578.41780879 5 0 1.81883009-2.3832946 3-3.95818337 3-7l1.9375-.875c2.21456079-.95323451 2.21456079-.95323451 3.0625-3.125-4.30829538-.55848273-8.61893486-1.08941775-12.9375-1.5625l-2.27734375-.25390625c-8.42886122-.55561918-16.93006979-.10561054-25.36694336.13378906ZM356 38v2l-1.796875.5234375c-3.31623982 2.22258627-4.14631058 5.48782057-5.453125 9.1015625l-.8125 2.140625C347.27908961 53.5057096 346.63785546 55.25227603 346 57c2.49422322 1.24711161 4.88260688 1.36713534 7.625 1.6796875C357.78937814 59.2413306 361.89022137 60.13256721 366 61c-.95646431-2.89646267-1.91510068-5.79217577-2.875-8.6875l-.81640625-2.47460938C360.98167179 45.84094276 359.63050963 41.88631179 358 38h-2Zm-27 33c-2.2773501 2.81509993-2.2773501 2.81509993-2 6 9.04776598 2.95378731 17.65361335 4.67324458 27.08984375 5.60546875 2.5737368.25968773 5.14200847.58248396 7.69921875.97265625C365.13171416 84.01730551 367.72331891 83.71927146 371 83c-1.36765043-5.64155801-5.48394025-8.73668285-10-12-9.90166371-5.79857703-21.74539488-5.00480728-32 0Zm-106-2-3 8c4.96911366-1.12697043 4.96911366-1.12697043 9-4-1.28965176-1.37562854-2.62689293-2.70766393-4-4h-2Zm-81 9c-.36980013 4.04622502-.36980013 4.04622502 2 7 2.99152582-.77479736 2.99152582-.77479736 6-2l1-3-9-2Zm126 3c-3.67852444 3.10398817-4.5891587 5.26066296-5.1875 10-.79157703 5.91833291-.79157703 5.91833291-1.296875 7.890625-.79321999 3.24499085-1.15585522 6.55003107-1.578125 9.859375l-.27539062 2.11328125C259.43931886 112.57525048 259.21937593 114.28758987 259 116c3.13036114.3478179 4.58025088.28922643 7.2109375-1.5234375 2.31142903-3.19966377 2.85294321-6.28470339 3.4140625-10.1015625.2347808-1.43504276.47045735-2.86993925.70703125-4.3046875l.33447266-2.10839844c.56956067-3.35065123 1.38362521-6.64754424 2.19677734-9.94628906C273.03977282 85.41363501 272.46394716 84.1378276 271 82l-3-1Zm-40 6c-1.37268606 2.33464716-2.59189461 4.56953666-3.75 7l-.91796875 1.828125c-2.68118694 5.48153774-3.46742626 9.93408916-3.39453125 15.984375l.02734375 2.95703125L220 117c2.12939828 1.35026777 2.12939828 1.35026777 5.125.0625L228 116l.26171875-2.1328125C229.87430422 102.53470611 233.56712205 92.06088508 239 82c-5.68600047-.66116285-7.33300674.76623808-11 5Zm20-4c-3.78763928 5.11663552-5.8786163 11.06418277-7.8125 17.0625l-.66333008 2.00024414C238.05414936 106.84578729 237.80492052 111.00039151 238 116l10 1c1.43432197-4.11131083 2.56106537-8.18677962 3.5-12.4375.78831101-3.52539088 1.58737928-6.9966969 2.6875-10.4375.91560298-3.52154991 1.0967035-6.50140541.8125-10.125l-2-2c-2.9254644-.2236068-2.9254644-.2236068-5 1Zm56.75 6.4375c-4.66441259 3.83960792-7.53163474 8.99978106-9.75 14.5625v4h-2c-1.04214691 4.61507774-1.04214691 4.61507774 0 9 3.02934491.65772428 3.02934491.65772428 6 1l2.0625-3.3125 1.37890625-2.19140625c1.1051844-1.76995697 2.19480176-3.5496774 3.2734375-5.3359375L307.5 104.25l1.65625-2.734375c3.25689616-4.4437312 7.24762604-6.9094855 12.15625-9.265625l2.67578125-1.296875L326 90l-1-4c-7.09344463-1.86669596-14.15128092-.60494598-20.25 3.4375ZM150 92l-2 3c1.39698636-.28609307 2.7925433-.57916905 4.1875-.875l2.35546875-.4921875c2.4908848-.57505993 2.4908848-.57505993 4.86328125-1.6640625 3.02498454-1.1298135 5.68965796-1.38166701 8.90625-1.59375l3.23828125-.2265625L174 90l-1-3c-8.75193098-.61729921-15.6977964-.25817906-23 5Zm132-2c-.92269193 1.80998392-.92269193 1.80998392-1.30078125 3.95703125l-.52148437 2.37304687L279.6875 98.8125l-.54882812 2.44726562C278.25515149 105.45734691 277.68023986 108.80231129 279 113c3.31924947-.73510042 3.31924947-.73510042 4.8125-4.1875C286.72006853 102.62401756 289.34534743 96.30037543 292 90l-2-2c-4.38974885-.00729827-4.38974885-.00729827-8 2Zm-67-2c-7.28249059 3.8435367-11.18185605 10.36267794-13.66015625 18.046875C198.97009666 114.51401693 198.97009666 114.51401693 200 123c5.28245459-.70577924 5.28245459-.70577924 10-3 .77723211-2.06711335.77723211-2.06711335.94140625-4.5078125l.33007813-2.7421875.29101562-2.875c1.13513708-10.51649576 1.13513708-10.51649576 3.08984375-15.3671875C216.38706751 91.10217062 216.38706751 91.10217062 215 88Zm122 1c3.72511984 6.10919653 8.14683415 11.15383386 14.1875 15.0625 3.99929279 2.75506836 6.31743163 5.9572265 7.5 10.6875 1.62701637 2.78917092 2.51850702 2.94351369 5.5625 3.8125 3.60981995.60551818 4.7176237.45079741 8.25-1 3.10134689-3.17888057 3.46245076-5.3194358 3.5-9.5625l.11328125-3.05078125C376.22537607 100.46938154 376.22537607 100.46938154 376 96c-2.77744395-2.77744395-5.16358534-2.53698444-9-3l-1.89428711-.48022461c-2.46452348-.6083444-4.90490049-.94538696-7.42211914-1.27368164l-3.06445313-.40039063L351.4375 90.4375l-3.19335938-.41992188C342.63947216 89.26442648 342.63947216 89.26442648 337 89Zm-144.9375 7.8125c-4.87616737 7.53589503-5.43105952 16.14527862-5.8515625 24.92578125C186.00733325 124.8866063 185.54023714 127.89473449 185 131c-.03622333 1.66627298-.04899842 3.33405374 0 5 3.38581619-3.10129382 4.94408806-6.57124702 6-11 .00805308-1.50055698-.03658683-3.0020283-.125-4.5-.23211471-5.73144789 1.50002084-10.61643969 3.34716797-15.96679688C195.39514391 101.1139071 196 98.66646935 196 95c-2.19876339-.22771904-2.19876339-.22771904-3.9375 1.8125ZM180 97c-1.21320121 1.5314003-1.21320121 1.5314003-2.34765625 3.54296875l-1.33398437 2.25585937L174.9375 105.1875l-1.39257812 2.33007812C170.2645092 112.91464536 170.2645092 112.91464536 169 119l2 3c.50244141 2.66381836.50244141 2.66381836.8515625 5.83984375l.390625 3.47070313L172.625 134.9375l.40625 3.61523438C173.52859311 143.06688429 174 147.45485191 174 152h2c2.43365704-3.65048556 2.07920844-4.85544069 1.625-9.125-.70575412-7.5532495-.94465159-14.39697433.375-21.875.15582819-1.93672176.30045967-3.87435822.4375-5.8125.49314139-6.2934235 1.5666206-12.19986181 3.5625-18.1875h-2Zm-34.3125 8.3125-2.1027832 1.14819336c-5.26396547 3.01775118-8.8635512 5.89503278-10.5222168 11.97680664-.07111955 4.05381408.84911776 6.13755313 2.9375 9.5625 5.72462719.57246272 9.19162189-1.23563281 14-4l2.1484375-1.16796875C156.78492286 120.16906847 159.35334278 117.763983 162 113l1.5703125-2.72265625C166.86946246 104.95818217 166.86946246 104.95818217 168 99c-8.53847519-.55086937-15.05181924 2.29499433-22.3125 6.3125ZM320 101c-2.39185396 2.4412271-4.2059694 5.09947148-6 8l-1.1171875 1.796875C310.35335486 115.07146234 308.18852259 119.54479329 306 124c1.24054448 1.01170618 2.4928702 2.00897797 3.75 3l2.109375 1.6875c2.29047249 1.66097198 2.29047249 1.66097198 6.140625 1.3125l.25-1.875L319 126l1.80078125-.82421875c3.68845277-1.97197919 5.64986503-5.45607712 8.1015625-8.765625C331.07346511 113.91559037 333.1693422 112.64916585 336 111v-2l5-2c-1.30247233-3.90741698-3.64159737-5.81349899-7-8-5.13200436-1.78504499-9.46167898-.80468239-14 2Zm24.7734375 13.109375L342.375 115.75l-2.4140625 1.609375C337.73052474 118.93394189 337.73052474 118.93394189 337 122c-1.32407669.68486725-2.65909241 1.34870203-4 2-2.25065102 1.91666921-2.25065102 1.91666921-4 4v2l-1.9375.75c-2.18743715 1.06449418-2.18743715 1.06449418-2.9375 3.125-.15287435 2.59886397.54045464 3.9269253 1.875 6.125 4.28408178-.47600909 6.08914066-3.01983449 9-6 4.93372388-3.901084 10.00951861-5.43726572 16-7 .99409592-4.97047962 1.20873282-8.36166107-1-13-2.92159344-1.36614946-2.92159344-1.36614946-5.2265625.109375ZM361 126c2.23738573 11.39837926 2.23738573 11.39837926 9.5625 19.9375 2.50021544 1.41324193 2.50021544 1.41324193 5.4375.0625.02705729-1.77074917.04642195-3.54161711.0625-5.3125l.03515625-2.98828125C376.12329862 134.90036151 376.12329862 134.90036151 375 132h-2v-2c-4.05480813-2.22049017-7.44166456-3.342425-12-4Zm-218.8828125 10.74609375C138.45172234 140.88125419 135 145.29261969 135 151c3.91086359-1.65459614 6.76482202-4.29301434 10-7 2.65877707-1.75090197 4.5660084-2.90916455 7.6875-3.5625 2.52228284-1.22269264 2.52228284-1.22269264 3.0703125-3.78515625C156.26645851 134.10553166 156.6814364 131.57703691 157 129c-5.64267906 0-10.83496317 3.99217539-14.8828125 7.74609375Zm201.33203125.0234375C340.1795551 138.41218524 338.14504893 140.02460954 336 143c-1.15973355 4.05906743-1.41850218 6.06335225.3125 9.9375L338 155h2l2.1875-2.8125c4.05937673-5.06228156 9.54976291-6.42375157 15.8125-7.1875-.70771947-3.68014125-2.12896153-6.76166418-4-10-4.25048656-1.41682885-6.54678137.05687145-10.55078125 1.76953125ZM164 141c-4.76274714 13.33569199-4.30232918 31.12086467-2 45l2 3c3.00608949-15.72828966 2.87602018-32.12082922 1-48h-1Zm-19 12.6875-2.6875 2.07421875c-3.2808143 3.17551789-4.17068634 5.66998901-4.578125 10.17578125L137.75 169l-.015625 3.0625c.27199074 3.0078976 1.00241382 5.21056793 2.265625 7.9375 2.93472549-1.46736275 3.38685248-3.91300955 4.7109375-6.7734375 1.41797083-2.44922235 3.04247988-3.98623614 5.1015625-5.9140625 2.57074453-2.72936493 3.16005592-3.90131203 3.4140625-7.70703125C152.9662912 156.3591119 152.58111722 153.2034697 152 150c-3.09813872 0-4.6023834 1.80216485-7 3.6875Zm201.82421875 3.08203125c-4.01116964 4.17088301-4.01116964 4.17088301-4.76171875 9.73046875L343 169c4.65388351 1.44492002 7.6739052.43435019 12.1875-1.1875l3.73046875-1.29296875c3.08516196-1.24598459 3.08516196-1.24598459 4.5625-3.3984375.64294142-2.62494127.33356281-4.26808562-.35546875-6.87109375l-.6171875-2.421875L362 152c-5.79729096 0-10.5987449 1.04709414-15.17578125 4.76953125ZM354.75 174.1875l-2.640625 1.29296875c-2.24261392 1.33652908-2.24261392 1.33652908-2.96875 3.5703125-.31310568 2.02960308-.31310568 2.02960308.859375 3.94921875 4.59264899-1.04855 8.94056337-2.58499269 13-5 1.65060634-2.56469493 1.65060634-2.56469493 2-5-4.22269749-1.23794909-6.35752035-.79952928-10.25 1.1875ZM151 179c-3.90887939 6.77539094-3.11016928 14.43504253-3 22l5 2c1.41693713-2.83387427.64651416-5.15331201.2578125-8.203125C152.773577 189.54365354 152.92668833 184.27029427 153 179h-2Zm211 8c-6.17086198 3.49287732-6.17086198 3.49287732-9.51171875 9.26171875L352.3125 198.6875l-.19921875 2.44921875L352 203c3.50701626-.9575471 4.78348357-1.67568602 6.8359375-4.75L360.375 195l1.5859375-3.25L363 189l-1-2Zm-193 69v16c4.81980771-1.38770807 4.81980771-1.38770807 6.1796875-3.734375C176.72489599 263.78625656 177.29856964 260.72207141 176 256h-7Z" fill="#2B1C5E"/><path d="M76.546875 345.19921875C81.69025487 348.9748527 84.64632157 353.830777 86 360c.27582611 6.06817437-1.30788423 12.11234199-5 17-2.13671875 1.22265625-2.13671875 1.22265625-4 2v2c-3.14911479 1.57455739-5.52008816 1.34799118-9 1-4.45655711-2.10673609-4.45655711-2.10673609-6-5-.5064718-4.70752206-.34457195-9.28446911 0-14-2.35253087-1.1453949-2.35253087-1.1453949-5-2-2.69519712 1.30027975-2.69519712 1.30027975-5 3h-2l-.84838867 2.61132813c-1.10329782 3.24650703-2.31051872 6.42158162-3.57739258 9.60742187l-1.41601563 3.578125c-.96815209 2.43773754-1.93688674 4.87524382-2.90625 7.3125C33.0925837 403.68982001 33.0925837 403.68982001 32.125 420.6875 35.45407754 424.7933623 38.89256631 426.19168066 44 427c10.28233603.70952771 18.58966222.54960222 26.75-6.3125 5.14499709-6.14541319 8.19076059-11.41373137 10.625-19 .59890936-1.78734955 1.20052978-3.57379267 1.8046875-5.359375l.91308594-2.70898437c1.62094447-4.67962655 3.45022349-9.2745355 5.27954101-13.87573243 1.54826413-3.9128385 3.02816698-7.83577503 4.4128418-11.80981445l.90234375-2.56030273c.56252755-1.60612289 1.11424317-3.21609568 1.65234375-4.83056641 2.32232921-6.58687868 5.73712336-12.1900396 11.22265625-16.60522461 3.06420796-1.17854152 4.36921488-1.08810692 7.4375.0625 3.35545977 1.98277168 4.72485409 3.28156346 6.125 6.9375.47334617 5.96160315-2.83766774 11.7253914-5.125 17.0625-2.37425967 5.72823245-4.51794582 11.47795787-6.4375 17.375-1.81337334 5.55267899-3.86943135 10.93740301-6.1640625 16.30859375C101.62396116 405.89177926 99.92626646 410.12688636 98.25 414.375l-.92724609 2.30786133C95.7124212 420.78554782 94.53192963 424.59058334 94 429c1.39809472-.25890643 2.79342142-.53277461 4.1875-.8125l2.35546875-.45703125c3.88366196-1.1546022 6.62975491-2.54378443 8.9765625-5.91015625 3.62603186-7.55879754 6.64026643-15.25738441 9.41333008-23.16943359 2.79267442-7.70717353 6.3523613-15.70118307 13.62963867-20.08837891l2.19140625-1.37109375c6.41468786-3.40257356 12.88064631-5.19743529 20.09375-3.53515625 6.28905779 2.14537322 12.85905598 4.55666929 16.4296875 10.453125 2.41388488 5.11984124 4.29772601 10.01527621 3.16015625 15.703125-3.95819307 8.77686289-8.68606128 14.79426167-17.6875 18.5-5.38852822 1.84914641-9.24817833 1.75487281-14.75.6875-1.68597242-.20077229-3.37354451-.38859819-5.0625-.5625L133 418c-.50101429 3.50710006-.1882249 4.74360511 1.94140625 7.64453125 4.1789839 3.21829794 7.18356241 3.0319174 12.30859375 2.85546875l2.44921875.0078125C155.58015117 428.41371758 160.53991638 427.14468149 166 425v-2l2.3125-2.1875c4.16939897-4.3633245 5.76166388-9.91259095 7.77954102-15.50854492C183.92118112 383.66305511 183.92118112 383.66305511 191 378l2.625-2.25c6.85756159-3.55577267 13.27215946-3.2540375 20.5625-1.125 5.86035779 1.7004147 8.35910233.86251473 13.8125-1.625 4.42007621.10279247 6.79558896 2.06262321 10 5 1.78572876 3.57145752.82582279 7.24532743 0 11-1.53187763 4.35321456-3.30292197 8.59644681-5.09570312 12.84667969-1.63336483 3.88938383-3.21457666 7.79839993-4.77929688 11.71582031l-.93994141 2.27124023C225.50176994 420.05811993 224.63412393 423.36800894 225 428c2.89318369 1.27655181 2.89318369 1.27655181 5.4375.3125 4.85882751-2.48866775 7.03372867-5.73431807 8.99609375-10.734375l1.27685547-3.21679687L242 411l1.27001953-3.28320313c1.7070434-4.44582357 3.39122319-8.9000547 5.06787109-13.35742187C254.57966775 377.94688816 254.57966775 377.94688816 259 375c2.0859375-.23046875 2.0859375-.23046875 4.375-.1875l2.42578125.04296875C268 375 268 375 270.5625 375.625c3.13960314.48301587 5.43338628-.30729628 8.46484375-1.12890625 5.55648187-1.39737267 9.21472139-.28793148 14.0859375 2.375C298.20898227 379.92007428 302.13395556 383.25023348 304 389c-.49630627 6.77529445-3.50703344 13.32556737-6 19.5625-4.27394223 9.91166535-4.27394223 9.91166535-6 20.4375 7.48504687-1.12883554 7.48504687-1.12883554 13-6 2.4810378-3.80920206 4.08093843-7.60399927 5.625-11.875.51820141-1.40804222 1.03782566-2.8155613 1.55859375-4.22265625l.86279297-2.33642578c1.84785059-4.97207111 3.73666626-9.92778586 5.64111328-14.87841797l1.15283203-3.05615234 1.10888672-2.86962891.97924805-2.5637207c1.49377423-3.06412609 3.00836331-4.75401512 6.1574707-6.0690918 6.18724739-1.53097418 6.18724739-1.53097418 9.8515625.49609375 4.14813016 4.77663473 4.14813016 4.77663473 3.9543457 8.39379883-1.43679791 5.77838309-3.40536535 11.18048329-5.7043457 16.66870117-.71528215 1.75189455-1.42881527 3.5045042-2.140625 5.2578125l-1.05273438 2.58691406c-1.4063202 3.49093433-2.75818827 6.99789392-4.05664062 10.53027344l-1.22265625 3.28515625C326.71806872 425.07455146 326.71806872 425.07455146 328 428c4.30844739.4223968 6.2926126.56269452 9.75-2.1875 3.41086904-4.2635863 5.53525796-8.21808144 7.125-13.4375 1.32761202-4.15069506 2.82428239-8.06094536 4.6875-12 1.64448688-3.48450726 2.95799011-6.85317132 4-10.5625 3.20262097-11.17358871 3.20262097-11.17358871 8.25-14.875 4.51288094-1.32731792 8.00989845-.52835093 12.4765625.68359375 3.41727825.47763111 6.14571824-.13453952 9.5234375-.80859375 5.35290827-.81664013 8.87003756-1.15254068 13.5078125 1.7734375 4.35834717 3.66912018 9.26051595 8.59962497 10.1171875 14.3515625-.14368228 4.59783281-2.09536665 8.43991515-3.92578125 12.59375-1.71383376 3.93251778-3.29196013 7.90025211-4.82421875 11.90625l-.80712891 2.04272461C396.49809028 421.11109421 395.67747959 424.10725367 396 428c3.28999282.41831404 3.28999282.41831404 7 0 2.81331378-2.39583651 2.81331378-2.39583651 5-5h2l1.125-3.5c12.86076914-38.5213559 12.86076914-38.5213559 26.08984375-45.68359375C439.82292702 372.62365044 442.14582078 372.23299422 445 372l3.8125-.3125c3.44895062.00659455 5.74015701.9039103 8.8125 2.4375 3.59651191 1.76343482 3.59651191 1.76343482 7.625 1.25L468 374c3.24801666-1.62400833 4.49438433-2.09101082 8.125-1.4375 3.44862219 1.7243111 4.4901712 2.85323721 5.875 6.4375-.4885324 5.45665847-2.41295518 10.44287482-4.25 15.5625l-.95019531 2.6784668C473.82880631 405.57205289 470.83746145 413.91096432 467.25 422c-1.12569937 2.70167849-1.81298263 5.11568535-2.25 8 9.99560463-3.55983814 14.99779011-10.88433566 19.4921875-20.14453125C485.82906287 407.32371772 486.73056067 405.69922844 489 404c1.9375-.58203125 1.9375-.58203125 4-.8125l2.0625-.26953125C497 403 497 403 500 405c1.33501065 7.70938584-.20356091 14.28843803-4 21h-2l-.5625 2.125c-1.71187548 3.42375096-3.74779031 5.08086247-6.69140625 7.44921875-1.91192607 1.50602729-1.91192607 1.50602729-4.05859375 3.80078125C481 441 481 441 479 441v2l-3.21875 1.390625c-1.42713341.61967635-2.85421391 1.23947457-4.28125 1.859375l-2.109375.91015625c-1.41935301.6176814-2.83397754 1.24633147-4.24389648 1.88525391-1.43121559.63642135-2.87965293 1.23543689-4.34228516 1.79589843-3.92886523 1.63992925-6.09567294 2.92263884-7.80053711 6.91650391-.50150772 1.44861576-.98128685 2.90489896-1.44140625 4.3671875-3.70816017 10.21398992-9.25552129 17.44887627-18.73828125 23.03515625-7.39444525 3.40429492-18.19867345 2.97450078-25.88671875.65234375-5.7409883-2.34171891-9.56598826-5.57385775-12.375-11.125-1.88671379-4.66221011-1.67166762-7.82422661-.5625-12.6875l1-2h2l.5-2.125c2.5994527-4.98228434 6.89128644-7.84972411 12.07421875-9.88671875C413.67323671 446.73222941 417.79264595 445.81456766 422 445v-2c-4.42698118-2.35183375-8.24355183-2.14558-13-1l-3.3125 1.5c-5.76703952 2.34591438-11.36817163 3.52169398-17.44140625 1.65234375C382.88069768 442.66555064 379.10572108 440.04679676 376 435c-3.8413193-11.13594585 1.40487531-20.62531476 6.25-30.8125 1.87328587-4.07892891 2.42528656-7.72269025 2.75-12.1875-3.31010574-1.10336858-5.6813976-1.13531135-9 0-1.06849698 1.83396825-1.06849698 1.83396825-2 4l-1.04296875 1.91015625c-2.96557154 5.57689392-5.16251752 11.277597-7.26953125 17.21484375-2.31328703 6.459419-4.83969773 12.71891405-7.875 18.875l-.97192383 2.01220703C355.04407818 439.54956953 353.5983428 442.21015073 350 444c-10.80238861 1.9714071-24.34795091 3.32391437-34.15625-2.1640625-3.49892596-1.58637745-6.17855858-.73721408-9.84375.1640625l-2.75 1.5c-5.72814704 2.64376017-11.93361061 3.50792226-18.0390625 1.65234375-6.7694691-3.18021887-11.70967024-6.86110398-14.8359375-13.71484375-1.74257337-9.35299584 4.45245435-19.35156773 8.36328125-27.46875C280.34094671 400.19777244 280.84035307 397.0709968 281 393c-2.20438833-.87754191-2.20438833-.87754191-5-1-6.70632173 3.28472901-9.30801088 8.80784581-11.7109375 15.53125-.56044592 1.65431033-1.11493156 3.31064943-1.6640625 4.96875-2.18411413 6.39793997-4.40331452 12.7692206-6.875 19.0625l-1.390625 3.56640625C253.13304844 437.71899252 252.2679138 439.28687156 250 441h-2l-1 3c-5.64394994 1.18018515-11.19758628 1.21940752-16.9375 1.25l-2.91992188.0625C221.26943546 445.34461561 217.2077525 444.74603194 212 442c-3.08817793-1.54408897-5.57145999-1.22119613-9-1-1.28651715.45813861-2.55792279.96050635-3.8125 1.5-4.70955007 1.90755032-9.16418627 2.28231935-14.1875 1.5-1.9453125-.90234375-1.9453125-.90234375-3.6875-2-3.95571974-2.38835909-5.75220215-2.33832931-10.3125-2-3.60091158 1.01477046-3.60091158 1.01477046-7.125 2.4375-11.70762286 4.4960346-23.00084994 5.13769725-34.875.5625-2.38601239-1.28020883-4.67169661-2.6154951-6.9296875-4.109375-2.78469357-1.19794365-4.20607103-.7906885-7.0703125.109375-1.52258915.76933642-3.02244266 1.58486845-4.5 2.4375-6.46261607 3.29391162-13.91545933 5.72382694-21.15234375 3.890625-3.26871533-1.4140865-6.08547211-3.15130314-9.03515625-5.140625-3.18077014-1.63336845-4.85190729-.96530149-8.3125-.1875-2.12158241.78794027-4.22591119 1.62358175-6.3125 2.5-11.15132867 4.35480781-23.58210265 5.08087284-35 .8125-9.9273795-4.55682993-17.98760428-10.50406733-22.125-20.9375-1.14762379-6.88574273-.34897125-12.03671773 2.0625-18.4375l.81811523-2.24536133c2.16048747-5.84503002 4.58858768-11.54749408 7.10766602-17.24682617 2.03836996-4.84593613 3.71085129-9.79108222 5.37109375-14.77734375C25 367 25 367 27 366l.3125-2.5625C28.91951043 355.40244784 34.42808583 349.59452407 41 345c11.12552046-6.7711875 24.44939797-5.79899858 35.546875.19921875ZM442 392c-1.66739667 3.22330934-2.86013905 6.58033696-4.0625 10l-1.0390625 2.84716797C435.9148833 407.55895405 434.95381752 410.27763498 434 413l-.74951172 2.10644531C430.85965429 421.40706514 430.85965429 421.40706514 430 428c3.93113741 1.72863681 3.93113741 1.72863681 8.0625 1.4375 9.62825579-7.14354462 14.46132978-18.99952646 16.5859375-30.5390625C455 397 455 397 455.875 394.1875c.36183133-2.35900625.36183133-2.35900625-1.5-4.5-2.23738949-1.83012841-2.23738949-1.83012841-4.8125-2.1875-3.60082193.7025994-4.94610485 1.88360485-7.5625 4.5Zm-300 1c-1.80859535 2.58370764-2.05654815 3.58531356-1.625 6.75L141 402h10v-2h2c1.19988045-5.28199593 1.19988045-5.28199593-1-10-4.38814866-.57236722-6.84996753-.15003247-10 3Zm62-1c-5.8808785 7.3469332-9.05631119 17.90162847-11 27 .31039986 2.78291753.31039986 2.78291753 1 5 1.74671588.79356801 1.74671588.79356801 4 1 7.05690418-3.09815305 9.29063727-10.2514497 12-17 1.49346554-4.85376299 1.08796997-9.96616293 1-15l-7-1Zm214 70c-1.84934513 1.91765868-2.77152001 3.5964522-4 6l1 2c3.49007906 1.03115972 5.3221076 1.29953385 8.6875-.1875 2.33656998-1.83136566 3.86501722-3.22226765 5.3125-5.8125.25124826-2.66761764.25124826-2.66761764 0-5-3.87451288 0-7.53963361 1.32206035-11 3Z" fill="#26165C"/><path d="M279 15c2.63434287.27701337 3.71602448.66550592 5.44921875 2.70703125L285.6875 19.8125l1.26171875 2.08203125C287.96691626 23.93370953 288.54487646 25.77439588 289 28c3.58327753 1.00217064 3.58327753 1.00217064 7 0v5l1.828125.1484375L300.25 33.375l2.390625.2109375C305.085877 34.01507113 306.84836903 34.78600638 309 36v1h-5v-2l-3 1v4l-2.125-.17578125c-6.02969646-.28673828-10.32509008.00251566-15.27734375 3.6328125-3.27194636 3.1599482-4.51805562 6.37204236-4.68359375 10.88671875.24667302 4.60983489.24667302 4.60983489 2.6328125 8.4375 3.54987796 1.76363364 6.8109965 1.32958611 10.640625.96875l2.23242188-.16015625C298.01299 63.58940548 298.01299 63.58940548 301 62c.09823996-1.47648876.12973519-2.95775417.125-4.4375l.0078125-2.43359375C301.13578326 52.94602069 301.13578326 52.94602069 300 51l-9 1c.90718608 2.33667103.90718608 2.33667103 4 3.375 3 1.625 3 1.625 3.9375 3.75L299 61c-1 1-1 1-4.1875 1.3125-4.53770527-.37194306-6.48312596-1.22093839-9.8125-4.3125-1.125-3.4375-1.125-3.4375-1-7 2.44652045-4.305876 5.38883044-6.31514958 10-8 4.05137006-.65267651 7.14910186-.47272119 10.8125 1.5625 4.46998669 4.98084231 5.52281878 9.84267548 5.48828125 16.32421875C309.95244572 63.33411513 309.32634503 64.91449697 308 67c-7.91981893 5.2300691-15.88812649 6.20087853-25.1875 4.3125C278.56212111 70.10780179 276.0825354 68.1559291 273 65c-1.375-2.8125-1.375-2.8125-2-5l-1.5625 3.125c-2.63578352 4.61496616-6.43649659 8.97681236-11.65625 10.5390625L256 74v2c3.73424501.33502427 3.73424501.33502427 6.875-1.5 3.276069-2.3125193 5.16965691-2.07416271 9.125-1.5 2.64758318 1.3720439 5.11831703 2.91113194 7.62109375 4.53125C282.30897841 79.19076499 284.94871929 80.19703139 288 81v-5c4.13418591-1.94456928 7.769997-2.37028021 12.3125-2.625l3.80078125-.2265625L307 73v5c-6.02031344.60965199-11.94670256 1.13451772-18 1v6h6c-.59015185 5.50808397-1.56663769 10.64878069-3 16h3v7h-3l-1 4h-1l1-10h-2v3h-2c.55907557-4.3328357 2.21948426-7.90677359 4.0625-11.81640625C291.9444557 91.12937194 292.52543629 89.18002705 293 87l-3.375.125C286 87 286 87 284 85l-2 1v-2h-7l.2890625 1.6875C276.11184464 91.35130264 275.72287781 95.57897044 274 101c-.37749388 1.33262941-.75263838 2.66592744-1.125 4l-.875 3h-2c1.19960703-8.02715768 2.49746145-16.0237581 4-24l-4-2v-2l-5 2v-3h5l-1-2-1.7578125.4375C262.73340325 78.50889428 258.66945753 79.23945936 254 79v2h-6v-2h4v-7l-2 1c-2.3329866.04022391-4.66706666.04320247-7 0v-5l-13 1 2 3-5-1-.9375-3.3125C225.41662103 65.44592006 224.7376883 63.2130649 224 61l-.55078125 2.4140625C222.12980058 68.97591755 220.88910437 74.04724965 218 79l4-1c-1.3125 1.5-1.3125 1.5-3 3h-3v-2h-8l-1-2-1 2h-9v9l-10 1-1-3c3.38018531-1.04005702 6.4780279-1.08004482 10-1-2.7769222-2.95690789-5.57247366-5.09734626-9-7.25-4.84833877-3.34613689-7.09024174-6.23519006-9-11.75l-.82421875-2.296875c-.5270035-1.53216627-1.0341436-3.07133336-1.51953125-4.6171875-.53907326-1.71348287-1.15053382-3.40402768-1.78125-5.0859375-1.43773855-4.9293893-2.32850456-9.73247722-1.3125-14.8125C174.60154599 36.08460393 176.75115229 34.7970769 180 33c2.87250937-.36701075 5.27377802-.52545295 8.125-.4375l2.25048828.03344727C197.95201661 32.82378208 204.83948788 34.61316263 212 37v2c2.41585574-.03093173 2.41585574-.03093173 5-1 1.06775224-1.96466413 2.06553465-3.96855359 3-6 2.1875-1.875 2.1875-1.875 4-3-8.8374894-1.34483534-17.50755371-2.18099231-26.453125-1.94921875l-2.61419678.05717468c-1.81178066.041547-3.62349163.08624487-5.43511963.13398743-2.72692308.07002673-5.4538585.12461307-8.18115234.17797852-18.87025371.39614309-18.87025371.39614309-37.00390625 5.20507812C138.25144509 35 138.25144509 35 135 35c1.375-1.5 1.375-1.5 3-3h2l1-3 3.3125-.375c3.76131802-.37964801 3.76131802-.37964801 6.6875-2.625 2.19140625-.37890625 2.19140625-.37890625 4.5625-.5625 3.34407232-.25210438 3.34407232-.25210438 6.4375-1.4375 2.50790438-.04776961 4.99339495-.04264071 7.5 0 6.15738059.06357951 12.23376501-.12830558 18.375-.5625 9.42523311-.6402163 18.71438859-.11564827 28.125.5625v-2h6v2l1.71484375.3671875L225.9375 24.875l2.21484375.4921875C230 26 230 26 231 28c2.54941373.31241371 5.00361513.51303421 7.5625.625l2.15429688.1171875C242.47742425 28.83671783 244.23867728 28.91945817 246 29v5l3.4296875-.03515625c1.48176919-.00937829 2.96354015-.01847845 4.4453125-.02734375l2.26171875-.02539062C261.7734375 33.88671875 261.7734375 33.88671875 264 35v-8h-2c.21022281-3.67889913.97976468-4.97774115 3.5-7.75 3.34375705-2.60341182 6.49412134-2.91471591 10.64453125-3.109375C278.01573201 16.20148355 278.01573201 16.20148355 279 15Z" fill="#0F0808"/><path d="M267 233h19l4 7 3 2c1.32421875 2.37109375 1.32421875 2.37109375 2.6875 5.4375l1.55078125 3.4765625C300.56230423 258.57954854 303.79339381 266.28479283 307 274c1.1150275-3.34508249.81371596-3.76393028 0-7-.09391875-2.43869791-.13070628-4.87980767-.1328125-7.3203125l-.00289917-2.12081909c-.00067861-1.47421357.0011534-2.94843017.00534058-4.42263794.00536893-2.26032166.00003603-4.52044608-.00634766-6.78076172.00066052-1.43359419.00194115-2.86718826.00390625-4.30078125l.00341797-3.95361328C307 235 307 235 308 233h19l1 7 5 1c1.25565817 3.76697451 1.13944506 7.27976388 1.12939453 11.20336914l.00531006 2.53343201c.00440483 2.76613942.00148558 5.53221502-.00189209 8.2983551.00067337 1.91906242.00164367 3.83812476.00289917 5.75718689.00147506 4.02243359-.0006717 8.04484499-.00534058 12.067276-.005701 5.1641952-.00241471 10.32833848.00357247 15.49253178.00360749 3.96242319.00246622 7.92483401-.00012779 11.88725757-.00066855 1.90465934.00015665 3.80931978.00247955 5.71397782.00252999 2.65757682-.00131884 5.31506861-.00690079 7.97263908l.00613403 2.40078735C334.11426497 329.77147006 334.11426497 329.77147006 333 332c-3.10367497.14515677-6.20648027.23400853-9.3125.3125l-2.66992188.12695312C318.58285691 332.4857406 316.38909965 332.47666994 314 332c-2.14614981-2.44079747-3-3.75061286-3-7l-1.83178711-.18334961C307 324 307 324 305.58374023 321.81030273l-1.27514648-2.87670898-1.42382813-3.16210937L301.4375 312.4375l-1.45898438-3.25195312C297.45650418 303.52056106 295.10032804 297.83424457 293 292c-.72183613 5.2814772-1.16580095 10.44551925-1.31640625 15.78125l-.06297302 2.11804199c-.06460608 2.2001506-.12395982 4.40040497-.18312073 6.60070801-.04327017 1.50521842-.08688693 3.01042693-.13085938 4.515625C291.19978392 324.67697936 291.10005457 328.33842838 291 332h-18v-7l-2.4375.0625C268 325 268 325 267 324c-.09520906-2.83040672-.12553631-5.63634993-.11352539-8.46704102l-.00044251-2.69006347c.00069947-2.94895835.00849342-5.89785438.01631165-8.84680176.00186406-2.03881292.00328802-4.07762629.00428772-6.11643982.00382612-5.37749967.01365721-10.75497251.02470398-16.13246155.0102121-5.48278439.01479321-10.9655731.01983643-16.44836426C266.96191086 254.53253838 266.97950842 243.76627561 267 233Z" fill="#EEF2DE"/><path d="m211.79066467 232.87974548 2.36192322.00672913 2.66920471.00022888 2.90086365.01564026 2.95518493.00428772c3.12825024.0056172 6.25643005.0181726 9.38465882.03086853 2.11523334.00501278 4.2304678.00957607 6.34570312.01367187C243.60549296 232.96222368 248.80274145 232.97897853 254 233l.8359375 3.41015625c.76624784 3.76221994.76624784 3.76221994 3.7890625 5.02734375L261 242c.02685411 2.31243792.04632841 4.6249627.0625 6.9375l.03515625 3.90234375C261 256 261 256 260 257c-1.63256758.15714654-3.27135338.25085413-4.91015625.31640625l-2.99804688.12695312L248.9375 257.5625l-3.16601563.13085937c-2.59032409.10645168-5.18088612.2070837-7.77148437.30664063l-1 10 3.24609375-.03515625c1.39713368-.00937674 2.79426924-.01847706 4.19140625-.02734375l2.14257812-.02539063C248.3869356 267.90346412 250.19387602 267.94779988 252 268c1 1 1 1 1.0625 4.5625L253 276l2.375-.125C258 276 258 276 260 278c.265625 2.96875.265625 2.96875.25 6.5l.015625 3.53125C260 291 260 291 258 293c-2.06298828.31884765-2.06298828.31884765-4.5703125.4140625l-2.71484375.1171875L247.875 293.625l-2.86328125.1171875C242.6748065 293.8366082 240.3374297 293.91939897 238 294l-1 14h19v6l2.9375.375L262 315c1.42597611 2.85195222 1.1320252 5.32461175 1.125 8.5l.0078125 3.53125C263 330 263 330 262 332c-6.53278786.02527002-13.0655632.04283292-19.59838867.05493164-2.22428865.00504152-4.44857396.01187458-6.67285157.02050781-3.18954285.01207353-6.37904205.0177905-9.5686035.0222168l-3.03343202.01564026-2.7905426.00022888-2.46958924.00672912C216 332.00000001 216 332.00000001 215 331.00000001c-.04080783-1.99958365-.04254357-4.00045255 0-6l-2.4375-.4375C210 324 210 324 209 323c-.10050214-2.76401409-.13616075-5.50307227-.12939453-8.26757814l-.00531006-2.62608337c-.00441966-2.87921624-.00148013-5.75837159.0018921-8.6375885-.00067302-1.99157727-.00164302-3.98315446-.00289918-5.97473145-.00147713-4.1798175.00067806-8.35961368.00534057-12.5394287.0056973-5.37061512.00241837-10.74118026-.00357246-16.11179353-.0036052-4.11422353-.0024672-8.22843512.0001278-12.34265899.00066937-1.9808452-.00015954-3.96169146-.00247956-5.9425354-.00252587-2.76337069.00131314-5.52665927.0069008-8.2900238-.00202425-.82704942-.00404848-1.65409882-.00613405-2.50621034.02518146-6.68680093.02518146-6.68680093 2.92619324-6.8816223Z" fill="#EFF4E0"/><path d="m167.9375 240.8125 2.84179688-.03710938c8.11208817-.01691192 15.41501699.95146817 22.72070312 4.66210938l2.53125 1.24609375C198 248 198 248 199 251h2c.67812114 1.8708878 1.3419946 3.74694293 2 5.625l1.125 3.1640625C206.17347729 267.30624254 204.07816019 273.09522285 201 280c-2.27258422 3.40887633-4.61830334 5.70527727-8 8 1.1290641 2.44630556 2.35372937 4.49065687 3.9375 6.6875C203.525528 305.26827224 205.41055341 319.77099253 207 332c-3.458176.0868329-6.91607344.14033282-10.375.1875l-2.984375.07617188-2.8515625.02929687-2.63427734.04760742L186 332c-2-3-2-3-2-7l-2.375-.25C179 324 179 324 177.90283203 322.27832031c-.99033587-2.49913854-1.51127-4.83336467-1.97314453-7.48144531l-.52734375-2.96875L174.875 308.75l-.55078125-3.125c-.44698303-2.54074567-.88817409-5.08235822-1.32421875-7.625l-4-1 .01586914 3.10522461c.01805055 3.78872815.02956306 7.57745248.0390625 11.36621094.0050401 1.64225909.01187214 3.28451368.02050781 4.92675781.01207981 2.35556143.01779194 4.71106373.0222168 7.06665039l.01564026 2.23802185C169.1134925 327.46898088 169.06194719 329.23497146 169 331c-1.58937556 1.58937556-3.23899846 1.12981143-5.4375 1.1328125l-2.7109375.00390625L158 332.125l-2.8515625.01171875-2.7109375-.00390625-2.50390625-.00341797C148 332 148 332 147 331c-.125-3-.125-3 0-6l1-1c.12502642-2.55499309.18604177-5.08430642.20532227-7.64086914l.02999877-2.42405701c.03170814-2.65671277.05640904-5.31344345.08108521-7.9702301.0205615-1.8370359.04155775-3.67406699.06297302-5.51109314.05530377-4.84479379.10467628-9.68963086.15284729-14.53450012.05015455-4.93991974.1058721-9.87977632.16113282-14.81964111C148.80104246 261.39979349 148.90246473 251.69992286 149 242c6.3685196-.81716851 12.51376781-1.18310319 18.9375-1.1875ZM169 256v16c4.81980771-1.38770807 4.81980771-1.38770807 6.1796875-3.734375C176.72489599 263.78625656 177.29856964 260.72207141 176 256h-7Z" fill="#EEF3DE"/><path d="m469 234 2 2c-.375 2.625-.375 2.625-1 5l6 1c1.125 6.625 1.125 6.625 0 10l-.9375 3.625L474 259l-2 1-2.27734375-.921875c-2.96622-1.17457205-5.11040423-1.34578704-8.28515625-1.328125l-2.81640625-.015625C455.87795108 258.01236859 454.24725987 258.40583396 452 260c-.81870185 3.56206661-.81870185 3.56206661-1 7l1.90625 1.06640625C462.14692194 273.39649263 468.92754276 279.23469714 475 288l2.25 2.875c3.77109832 6.73410414 4.33865066 13.67056229 2.75 21.125-2.2698628 7.06179537-6.25224419 12.79703758-12.69140625 16.58203125-11.22768196 5.30068795-24.50088157 6.54051689-36.39453125 2.47265625C427.94960188 329.4212092 427.21143246 327.06046095 426 324c-2.54788853-1.88131569-2.54788853-1.88131569-5-3 .42089996-5.60461531.91613111-10.72086547 3-16 8.36028432.85606397 8.36028432.85606397 11.5 1.5625 5.50310376.96304316 9.82842844 1.59736598 14.5625-1.6875 2.04902122-2.75070478 2.04902122-2.75070478 2.875-5.8125-1.36551815-4.46069261-4.20796985-5.33364013-8.18359375-7.48828125C440.73579295 289.2773398 437.05509193 286.49381271 434 283l-.52734375-2.1484375L433 279l-3-1c-1.53515625-1.890625-1.53515625-1.890625-3.0625-4.25l-1.53515625-2.328125C421.42473061 264.55245956 421.17616532 258.58027084 423.0625 251c2.65048875-8.02543339 8.09258687-13.26554225 15.54296875-17.03515625C448.79860616 229.85765788 458.75945096 230.29777829 469 234Z" fill="#EDF2DD"/><path d="m386 240 6 1v16h-23v11l3.24609375-.03515625c1.39713368-.00937674 2.79426924-.01847706 4.19140625-.02734375l2.14257812-.02539062C380.38693559 267.90346412 382.19387603 267.94779989 384 268c1 1 1 1 1.0625 4.5625L385 276h6c.22126178 2.45779976.42750395 4.91527648.625 7.375l.1953125 2.1171875c.14088489 1.83150361.16730409 3.67093998.1796875 5.5078125-2 2-2 2-4.15478516 2.22705078l-2.63427734-.03173828-2.8515625-.01953125L379.375 293.125l-3.0078125-.02734375C373.91135612 293.07404249 371.45564826 293.0381707 369 293v15h18l1 6 6 1v17h-46l1-90 36-1 1-1Z" fill="#EEF2DE"/><path d="m110.4375 232.8671875 2.7109375-.00390625L116 232.875l2.8515625-.01171875 2.7109375.00390625 2.50390625.00341797C126 233 126 233 127 234c.04092937 2.33297433.04241723 4.66705225 0 7l2.4375-.0625C132 241 132 241 133 242c.10050214 2.76401408.13616075 5.50307226.12939453 8.26757812l.00531006 2.62608338c.00441966 2.87921623.00148013 5.75837159-.00189209 8.6375885.00067301 1.99157727.001643 3.98315446.00289917 5.97473145.00147713 4.1798175-.00067806 8.35961368-.00534058 12.53942871-.00569729 5.3706151-.00241836 10.74118024.00357247 16.11179351.00360521 4.11422353.00246721 8.22843512-.00012779 12.342659-.00066938 1.98084519.00015953 3.96169145.00247955 5.9425354.00252587 2.76337069-.00131314 5.52665927-.00690079 8.29002381l.00613403 2.50621032C133.11426244 330.88573756 133.11426244 330.88573756 132 332c-1.4887186.08669432-2.981445.10703494-4.47265625.09765625l-2.72460937-.00976563L121.9375 332.0625l-2.87695312-.01367188C116.70696935 332.0370011 114.35351523 332.02052025 112 332l-1-7-2.4375-.4375C106 324 106 324 105 323c-.10050214-2.76401408-.13616075-5.50307226-.12939453-8.26757812l-.00531006-2.62608338c-.00441966-2.87921623-.00148013-5.75837159.00189209-8.6375885-.00067301-1.99157727-.001643-3.98315446-.00289917-5.97473145-.00147713-4.1798175.00067806-8.35961368.00534058-12.53942871.00569729-5.3706151.00241836-10.74118024-.00357247-16.11179351-.00360521-4.11422353-.00246721-8.22843512.00012779-12.342659.00066938-1.98084519-.00015953-3.96169145-.00247955-5.9425354-.00252587-2.76337069.00131314-5.52665927.00690079-8.29002381l-.00613403-2.50621032c.0259339-6.88660821.0259339-6.88660821 5.57302856-6.8941803Z" fill="#F0F5E0"/><path d="M279 15c2.63434287.27701337 3.71602448.66550592 5.44921875 2.70703125L285.6875 19.8125l1.26171875 2.08203125C287.96691626 23.93370953 288.54487646 25.77439588 289 28c3.58327753 1.00217064 3.58327753 1.00217064 7 0v5l1.828125.1484375L300.25 33.375l2.390625.2109375C305.085877 34.01507113 306.84836903 34.78600638 309 36v1h-5v-2l-3 1v4l-2.125-.17578125c-6.02969646-.28673828-10.32509008.00251566-15.27734375 3.6328125-3.27194636 3.1599482-4.51805562 6.37204236-4.68359375 10.88671875.24667302 4.60983489.24667302 4.60983489 2.6328125 8.4375 3.54987796 1.76363364 6.8109965 1.32958611 10.640625.96875l2.23242188-.16015625C298.01299 63.58940548 298.01299 63.58940548 301 62c.09823996-1.47648876.12973519-2.95775417.125-4.4375l.0078125-2.43359375C301.13578326 52.94602069 301.13578326 52.94602069 300 51l-9 1c.90718608 2.33667103.90718608 2.33667103 4 3.375 3 1.625 3 1.625 3.9375 3.75L299 61c-1 1-1 1-4.1875 1.3125-4.53770527-.37194306-6.48312596-1.22093839-9.8125-4.3125-1.125-3.4375-1.125-3.4375-1-7 2.44652045-4.305876 5.38883044-6.31514958 10-8 4.05137006-.65267651 7.14910186-.47272119 10.8125 1.5625 4.46998669 4.98084231 5.52281878 9.84267548 5.48828125 16.32421875C309.95244572 63.33411513 309.32634503 64.91449697 308 67c-7.91981893 5.2300691-15.88812649 6.20087853-25.1875 4.3125C278.56212111 70.10780179 276.0825354 68.1559291 273 65c-1.375-2.8125-1.375-2.8125-2-5l-1.5625 3.125c-2.63578352 4.61496616-6.43649659 8.97681236-11.65625 10.5390625L256 74v2c3.73424501.33502427 3.73424501.33502427 6.875-1.5 3.276069-2.3125193 5.16965691-2.07416271 9.125-1.5 2.64758318 1.3720439 5.11831703 2.91113194 7.62109375 4.53125C282.30897841 79.19076499 284.94871929 80.19703139 288 81v-5c4.13418591-1.94456928 7.769997-2.37028021 12.3125-2.625l3.80078125-.2265625L307 73v5c-6.02031344.60965199-11.94670256 1.13451772-18 1v6h6c-.59015185 5.50808397-1.56663769 10.64878069-3 16h3v7h-3l-1 4h-1l1-10h-2v3h-2c.55907557-4.3328357 2.21948426-7.90677359 4.0625-11.81640625C291.9444557 91.12937194 292.52543629 89.18002705 293 87l-3.375.125C286 87 286 87 284 85l-2 1v-2h-7l.2890625 1.6875C276.11184464 91.35130264 275.72287781 95.57897044 274 101c-.37749388 1.33262941-.75263838 2.66592744-1.125 4l-.875 3h-2c1.19960703-8.02715768 2.49746145-16.0237581 4-24l-4-2v-2l-5 2v-3h5l-1-2-1.7578125.4375C262.73340325 78.50889428 258.66945753 79.23945936 254 79v2h-6v-2h4v-7l-2 1c-2.3329866.04022391-4.66706666.04320247-7 0v-5l2.66796875-.04296875c7.03860039-.21762152 7.03860039-.21762152 13.45703125-2.76953125C263.04164367 58.52920575 264.13606673 50.6026128 265 43c-3.10378852-2.63822024-5.81462924-3.70365731-9.75-4.6875l-2.984375-.76171875L250 37v-2c3.99673385-1.33224462 7.83294503-1.13442113 12-1l2 1v-8h-2c.21022281-3.67889913.97976468-4.97774115 3.5-7.75 3.34375705-2.60341182 6.49412134-2.91471591 10.64453125-3.109375C278.01573201 16.20148355 278.01573201 16.20148355 279 15Z" fill="#0B0404"/><path d="M249.96386719 199.8425293c1.9810145 1.12613786 3.98888303 2.15772464 6.0361328 3.1574707l1.72265626-1.390625C262.3281487 197.94958467 266.79765109 194.7430567 272 192l2-1.05859375c11.70510152-6.05206953 25.68572847-7.95683861 38.71875-5.41015625 2.1703804.70308098 4.2010291 1.53444734 6.28125 2.46875l2.50390625.9140625C326.24703297 190.74005495 326.24703297 190.74005495 328 192c.75 2.6328125.75 2.6328125 1 5l-1.67382812-.03173828C308.815633 196.66537594 292.72807767 198.2456776 275.125 204.3125l-2.56640625.85742188c-4.41035458 1.52302444-8.32011196 3.20132937-12.31640625 5.62304687-2.82989457 1.61983004-3.97385394 2.20257616-7.30078125 2.2578125-3.81780334-1.36386334-7.38550102-3.0425812-11.00390625-4.86328125-17.28289403-8.38060126-35.58628214-12.76124466-54.625-8.52734375C185 200 185 200 182 199c.34761558-2.8243766.84365035-3.85574883 2.96875-5.81640625 22.52328782-15.53689761 43.64107958-5.83928723 64.99511719 6.65893555Z" fill="#2A1C5F"/><path d="m211.79066467 232.87974548 2.36192322.00672913 2.66920471.00022888 2.90086365.01564026 2.95518493.00428772c3.12825024.0056172 6.25643005.0181726 9.38465882.03086853 2.11523334.00501278 4.2304678.00957607 6.34570312.01367187C243.60549296 232.96222368 248.80274145 232.97897853 254 233c.625 3.375.625 3.375 1 7-2 2-2 2-5.53173828 2.22705078-1.51289503-.00031716-3.0258126-.01164445-4.53857422-.03173828l-2.41281128-.00857544c-2.54744385-.01121067-5.09453833-.03631644-7.64187622-.06173706-1.72525535-.01002868-3.45051619-.01915472-5.17578125-.02734375C225.46601086 242.07558422 221.2330647 242.04104866 217 242l.00672912 3.10630798c.0202313 9.63876162.03524295 19.27751896.04508305 28.91629696.00522886 4.95593427.01232656 9.91185147.02362728 14.86777592.01082877 4.7786075.01683736 9.55719852.0194378 14.33581733.00185426 1.827338.0054749 3.65467505.0108528 5.48200608.0072103 2.55032901.0082609 5.1005891.00779534 7.6509266l.01089477 2.31262206C217.11405216 323.88594784 217.11405216 323.88594784 216 325c-2.4375.1875-2.4375.1875-5 0-2.59124215-2.59124215-2.24020967-4.35555298-2.25994873-7.88578797l.01702881-2.49531555-.00575257-2.62652588c-.0037141-2.87385005.00700464-5.74744914.01820374-8.62127685.00119145-1.9901476.00164503-3.98029578.00138855-5.97044373.00156591-4.17386894.00986443-8.34765224.02326965-12.52149963.017001-5.36274553.0208141-10.72539693.02005482-16.08816624.0002713-4.10993767.00574575-8.21985457.01300144-12.32978535.00319248-1.97805244.00515542-3.95610725.00589371-5.93416214.00215682-2.75848377.0108864-5.51686563.02159691-8.27532768l-.0013733-2.50144958c.03809791-6.67581396.03809791-6.67581396 2.93730164-6.87051392Z" fill="#221921"/><path d="m149.48046875 232.63671875 3.27929688.00195312L156.1875 232.6875l3.36914063-.00976563C165.71296248 232.71782883 171.108725 233.19449325 177 235l1-2c7.87386092 2.96159687 13.02435758 6.15636896 18 13l-2 1c-1.953125-.7421875-1.953125-.7421875-4.25-1.875-5.87118278-2.89510047-11.4067541-3.25039849-17.8984375-3.22265625l-1.99209595.00428772c-2.07820386.00555091-4.15629582.01809388-6.23446655.03086853-1.41796718.00502136-2.83593607.00958315-4.25390625.01367187C155.91402678 241.96213563 152.45702433 241.97936579 149 242l.00672913 3.10630798c.02023128 9.63876162.03524294 19.27751896.04508304 28.91629696.00522886 4.95593428.01232657 9.91185148.02362728 14.86777592.01082877 4.7786075.01683736 9.55719852.01943779 14.33581734.00185427 1.82733799.00547492 3.65467504.01085282 5.48200607.0072103 2.55032902.00826089 5.1005891.00779533 7.65092659l.01089478 2.31262207C149.11405216 323.88594784 149.11405216 323.88594784 148 325c-2.4375.1875-2.4375.1875-5 0-2.56003113-2.56003113-2.24830623-4.24574749-2.28216553-7.73664856l.00750733-2.42912292-.01548767-2.55767823c-.01393778-2.79928615-.01293609-5.59832725-.01063538-8.39764404-.00388469-1.94051709-.00821888-3.88103333-.01298523-5.82154846-.00747126-4.07131199-.00716443-8.14253728-.00190735-12.21385193.00579526-5.22365831-.01113335-10.44696212-.03434467-15.67056179-.01471468-4.00880613-.01561213-8.01752644-.01249027-12.02635479-.00051438-1.92616859-.00577377-3.85234184-.01581192-5.77848435-.01230305-2.69121553-.0056098-5.38173496.00600624-8.07293891l-.02316284-2.4229889c.05136626-5.3697475.05136626-5.3697475 1.76196289-7.86735534 2.39986692-1.4762273 4.31288263-1.37661701 7.11398315-1.36810303Z" fill="#1C141B"/><path d="M307.796875 42.37109375C313.69211459 45.36903876 319.54189745 49.64990174 322 56c.64241408 3.44515869.73035361 6.56463304 0 10-2.6908567 3.50584202-6.52519669 6.6518958-10.99951172 7.28125L308.5703125 73.5l-2.66015625.25L303.125 74c-1.810152.163861-3.62006134.33043035-5.4296875.5l-2.43701172.21875C293.10462904 74.98696944 291.0906954 75.42573173 289 76l-1 5c-4.48328245-.23596223-7.25787293-1.67495572-10.9375-4.0625C272.84642422 74.30007515 270.07422539 73.08663943 265 74c-1.34275169.98731742-2.67732273 1.98594743-4 3-2.75-.3125-2.75-.3125-5-1v-2c1.828125-1.33203125 1.828125-1.33203125 4.25-2.8125 3.65156043-2.37695915 6.50765762-4.35683177 8.75-8.1875.80222151-3.689748.80222151-3.689748 1-7 1.15909649 2.31819298 2.25171887 4.60412529 3.25 7 2.57334968 4.4114566 5.6474765 6.43932707 10.5625 7.75 9.18162829.72012771 16.01831439-.00047348 24.1875-4.75 1.89137933-5.67413799 1.7835904-11.0075094-.8125-16.4375C305.65120361 46.64883442 304.88690893 45.92460595 302 44c-5.90109169-.70012952-9.5197708.10150608-14.42578125 3.50390625-1.84356643 1.53093136-1.84356643 1.53093136-2.69921875 4.55859375.12903429 3.03230587.31289251 4.52135667 2.125 6.9375 3.43239419 2.54251421 6.86247946 2.15913541 11 2-.03955898-1.92309422-.03955898-1.92309422-1-4-2.98352894-1.78379415-2.98352894-1.78379415-6-3v-2c3.10217621-1.83832664 5.39408679-2.47446226 9-2 2.08940868 3.13411302 2.27364412 3.97450472 2.25 7.5625l.015625 2.37890625C302 62 302 62 300 64c-2.64149975.4163074-5.15479275.69513735-7.8125.875l-2.15820312.21875c-3.68238637.25889118-5.76554804.06086139-8.97460938-1.8203125-2.75095852-3.04383623-3.0323283-4.91111278-3.2421875-8.8984375.39368052-4.98661994 2.26349598-8.62513321 5.95703125-11.984375 8.23093995-5.77951602 15.27315922-3.59246005 24.02734375-.01953125Z" fill="#EC1B22"/><path d="m419 232-1 7h6c1.72991264 4.73797728-.26378848 7.8725737-2.1953125 12.28125C412.91226341 270.08773659 412.91226341 270.08773659 408 275c-3.74629039.69375748-7.18553101 1-11 1l2-8-2.875.5625C393 269 393 269 391 268c1.01300882-5.06504409 2.24326493-9.86852577 3.9375-14.75 1.89247037-5.47339013 3.19558241-10.96171018 4.3515625-16.6328125C400 234 400 234 402 232c5.75400108-1.20970772 11.26201386-1.12264946 17 0Z" fill="#ECF0DD"/><path d="m110.4375 232.8671875 2.7109375-.00390625L116 232.875l2.8515625-.01171875 2.7109375.00390625 2.50390625.00341797C126 233 126 233 127 234c.125 3.5.125 3.5 0 7-1 1-1 1-3.94140625 1.09765625L119.4375 242.0625l-3.62890625-.02734375L113 242l.00672913 3.10630798c.02023128 9.63876162.03524294 19.27751896.04508304 28.91629696.00522886 4.95593428.01232657 9.91185148.02362728 14.86777592.01082877 4.7786075.01683736 9.55719852.01943779 14.33581734.00185427 1.82733799.00547492 3.65467504.01085282 5.48200607.0072103 2.55032902.00826089 5.1005891.00779533 7.65092659l.01089478 2.31262207C113.11405216 323.88594784 113.11405216 323.88594784 112 325c-2.4375.1875-2.4375.1875-5 0-2.59124215-2.59124215-2.24020967-4.35555298-2.25994873-7.88578796l.01702881-2.49531556-.00575257-2.62652587c-.00371411-2.87385006.00700464-5.74744915.01820374-8.62127686.00119146-1.99014761.00164504-3.98029578.00138855-5.97044373.00156592-4.17386894.00986444-8.34765223.02326965-12.52149963.017001-5.36274552.0208141-10.72539692.02005482-16.08816624.00027129-4.10993766.00574575-8.21985456.01300144-12.32978534.00319248-1.97805245.00515542-3.95610726.00589371-5.93416214.00215683-2.75848377.0108864-5.51686564.02159691-8.27532769l-.00137329-2.50144958c.03923749-6.87550281.03923749-6.87550281 5.58413696-6.8830719Z" fill="#1F171E"/><path d="M386 233c.09765625 6.15234375.09765625 6.15234375 0 8-1 1-1 1-4.41821289 1.11352539-1.51815699-.00015911-3.0363194-.00585313-4.55444336-.01586914l-2.417099-.00428772c-2.5576191-.00561537-5.11515193-.01817041-7.67274475-.03086853-1.72981645-.00501302-3.45963426-.00957627-5.18945312-.01367188-4.24938241-.01104937-8.4987-.02832426-12.74804688-.04882812l.00672913 3.10630798c.02023128 9.63876162.03524294 19.27751896.04508304 28.91629696.00522886 4.95593428.01232657 9.91185148.02362728 14.86777592.01082877 4.7786075.01683736 9.55719852.01943779 14.33581734.00185427 1.82733799.00547492 3.65467504.01085282 5.48200607.0072103 2.55032902.00826089 5.1005891.00779533 7.65092659l.01089478 2.31262207C349.11405216 323.88594784 349.11405216 323.88594784 348 325h-5v-91c42-1 42-1 43-1Z" fill="#1E151C"/><path d="M1 255h10l4 13 1.375-4.25c1.01512279-3.13765227 2.13248294-5.76496588 3.625-8.75h9c1.70271552 6.74856761 2.39299829 13.1169488 2.625 20.0625l.1171875 2.91210938C31.83538626 280.31622814 31.92119185 282.65786037 32 285c-6.75 1.125-6.75 1.125-9 0-.6328125-1.84765625-.6328125-1.84765625-1.125-4.0625l-.5078125-2.22265625L21 277l-.9375 3.4375C19 284 19 284 18 285c-1.99958364.04080783-4.00045254.04254356-6 0-1.88391785-3.26545761-2.49287967-6.28111761-3-10H7l.2890625 1.8984375L7.625 279.375l.3515625 2.4609375L8 284c-2 2-2 2-5.125 2.125L0 286c-.02902168-4.41665288-.04680608-8.83328123-.0625-13.25l-.02539062-3.80078125-.00976563-3.65234375-.01586914-3.36425781C0 259 0 259 1 255Z" fill="#2E2259"/><path d="M267 233h19l3 6-1 3h-14l.00672913 3.10630798c.02023128 9.63876162.03524294 19.27751896.04508304 28.91629696.00522886 4.95593428.01232657 9.91185148.02362728 14.86777592.01082877 4.7786075.01683736 9.55719852.01943779 14.33581734.00185427 1.82733799.00547492 3.65467504.01085282 5.48200607.0072103 2.55032902.00826089 5.1005891.00779533 7.65092659l.01089478 2.31262207C274.11405216 323.88594784 274.11405216 323.88594784 273 325c-2.5.125-2.5.125-5 0-1.844719-1.844719-1.1200219-4.44516412-1.12442017-6.8993988l.01089478-2.56764222-.00044251-2.69006347c.00069947-2.94895835.00849342-5.89785438.01631165-8.84680176.00186406-2.03881292.00328802-4.07762629.00428772-6.11643982.00382612-5.37749967.01365721-10.75497251.02470398-16.13246155.0102121-5.48278439.01479321-10.9655731.01983643-16.44836426C266.96191086 254.53253838 266.97950842 243.76627561 267 233Z" fill="#2B222A"/><path d="M246.83203125 34.9921875c1.70442155.40857857 3.40630219.82790289 5.10546875 1.2578125l2.47509766.61865234C259.04319068 38.13553976 262.58417827 39.43926462 266 43c0 2.69877307-.32733318 4.43288377-1 7l-.54296875 2.91015625L263.8125 56.0625l-.60546875 2.97265625C261.57096958 63.053832 259.7900948 65.77199144 256 68c-3.78187012.7571073-7.40911636.66003682-11.25.5l-3.046875-.03125C234.30975275 68.30975275 234.30975275 68.30975275 232 66c-.9755879-8.008896-.28429105-14.17191115 4-21 1.75091019.08754551 3.50079551.19573373 5.25.3125l2.953125.17578125C247.31951227 46.05845825 248.80878449 46.72009244 251 49v4l-14 1v4c4.05922108.90204913 8.04372072 1.14954474 12.1875 1.25l3.10546875.078125c2.70375046-.11298591 2.70375046-.11298591 4.5390625-1.60546875C258.89248229 54.68366325 258.6616064 51.45869482 258 48c-2.68221417-4.90197763-5.05116858-6.30055192-10.375-7.875-7.92179347-1.89572913-7.92179347-1.89572913-15.375.5625-2.23496762 2.29705006-3.75808446 4.48571266-5.25 7.3125-2-2-2-2-2.4375-5.3125C225 39 225 39 226.75 36.0625c6.35188417-4.03100341 13.01457337-2.60713625 20.08203125-1.0703125Z" fill="#EB1B21"/><path d="M186.5625 40.6875c5.53691561.03666832 10.53580885.7847604 15.875 2.125l2.00415039.50073242C208.57714244 44.42520517 212.23596054 45.96962941 216 48c.25574977 20.23264847.25574977 20.23264847-2.6875 24.375-4.37987914 3.07775291-8.86107541 4.15171445-14.2265625 4.0078125-5.18020566-.95067445-9.03005885-4.24571242-12.5234375-8.0078125-2.37948608-3.61681885-2.67991016-6.33441787-2.625-10.5625l.02734375-2.73046875L184 53c6.01326751.57914667 12.00892722 1.22337945 18 2v6l-10-1 1 5c3.71740785 1.23913595 7.13708223 1.52959357 11 1 2.62283334-1.28892287 2.62283334-1.28892287 4-4 .60320189-2.99538717.86965361-5.94989437 1-9-8.5994581-6.10284124-19.87490623-5.52790974-30-6 1.05939909-5.90236633 1.53399661-6.1719582 7.5625-6.3125Z" fill="#EA1B21"/><path d="m469 234 2 2c-.375 2.625-.375 2.625-1 5l-3.8046875.078125C454.35079843 241.43299909 443.63920502 241.94940426 435 251c-5.3254048 6.9895938-4.59625307 15.01791997-3.76171875 23.390625.21013141 1.54305456.47687688 3.07834995.76171875 4.609375-5.22719805-4.48045547-9.03955833-10.23369601-10.41796875-17.07421875-.3117184-7.31796045 1.94125881-14.56888919 6.54296875-20.23828125C439.15571219 230.24053452 454.50788303 228.7607272 469 234Z" fill="#190F18"/><path d="M156 52v1l-3.3125.8125c-3.90401274.9476961-3.90401274.9476961-6.6875 4.1875l13-2-1-2c1.45823212-.0270043 2.91660675-.04639787 4.375-.0625l2.4609375-.03515625C167 54 167 54 169 55v2l2 1v2h-3l-1 18-8 1c-2.68767578 2.43750025-2.68767578 2.43750025-5 5-2.8125.8125-2.8125.8125-5 1 3-3 3-3 4.6875-4.25 2.06726578-2.75635438 1.50073775-5.42446646 1.3125-8.75l-2.08984375-.1484375C146.76590531 71.36271949 140.9850923 70.47174401 135 69v-3l3.4375-1.75c2.83464441-1.56471447 2.83464441-1.56471447 4.5-4.25.06247289-1.9991326.0625-3.9998915.0625-6 4.50353262-1.75747614 8.17639811-2.19294408 13-2Z" fill="#041907"/><path d="m308 233 18 1v7h-11c.51214792 20.3410002 1.05505215 40.67356868 2 61-4.91490953-7.3723643-8.5562554-16.76442756-8.89453125-25.65625-.06880966-2.49185845-.06880966-2.49185845-.60375977-5.5144043-.50600649-3.8621469-.63112042-7.549141-.63452148-11.44262695l-.00289917-2.10795593c-.00067543-1.4562845.00113402-2.91257213.00534058-4.36885071.0053984-2.2337103.00001269-4.46722326-.00634766-6.70092773.0006601-1.41992232.00193984-2.83984452.00390625-4.25976563l.00341797-3.89575195C307 235 307 235 308 233Z" fill="#1A1219"/><path d="M453 296c2.89332454 1.29700755 5.00582149 2.51287849 7 5 .62505936 3.37306809.51630458 6.61348607 0 10-1.88515223 2.57637471-3.19334857 3.59667428-6 5-2.57363824.09909819-5.11434091.13892151-7.6875.125l-2.10742188.01171875C439.70548924 316.12831616 435.43968875 315.73315961 431 315l-1 8c-1.6875.6875-1.6875.6875-4 1-2.75-1.4375-2.75-1.4375-5-3 .42089996-5.60461531.91613111-10.72086547 3-16 8.36028432.85606397 8.36028432.85606397 11.5 1.5625 3.87921895.67886332 7.58942751 1.0609246 11.5.4375 3.58872618-2.54201437 4.76476466-4.04096361 5.8125-8.3125L453 296Z" fill="#1E151D"/><path d="m419 232-1 5h-2l-1 4-7 1-.734375 3.65625c-.33796149 1.61470488-.67653601 3.22928152-1.015625 4.84375l-.4765625 2.3984375C404.65009276 258.16951665 403.30461368 263.63243733 400 268c-5.67391304 1.66304348-5.67391304 1.66304348-9 0 1.01300882-5.06504409 2.24326493-9.86852577 3.9375-14.75 1.89247037-5.47339013 3.19558241-10.96171018 4.3515625-16.6328125C400 234 400 234 402 232c5.75400108-1.20970772 11.26201386-1.12264946 17 0Z" fill="#211720"/><path d="M268.0625 72.3125c4.68549381.81810209 7.60868182 2.66186044 11.55859375 5.21875C282.30897841 79.19076499 284.94871929 80.19703139 288 81v-5c4.13418591-1.94456928 7.769997-2.37028021 12.3125-2.625l3.80078125-.2265625L307 73v5c-6.02031344.60965199-11.94670256 1.13451772-18 1v6h6c-.59015185 5.50808397-1.56663769 10.64878069-3 16h3v7h-3l-1 4h-1l1-10h-2v3h-2c.55907557-4.3328357 2.21948426-7.90677359 4.0625-11.81640625C291.9444557 91.12937194 292.52543629 89.18002705 293 87l-3.375.125C286 87 286 87 284 85l-2 1v-2h-7l.2890625 1.6875C276.11184464 91.35130264 275.72287781 95.57897044 274 101c-.37749388 1.33262941-.75263838 2.66592744-1.125 4l-.875 3h-2c1.19960703-8.02715768 2.49746145-16.0237581 4-24l-4-2v-2l-5 2v-3h5l-1-2-7 1c1.5252035-3.58871411 2.16631424-4.81284605 6.0625-5.6875Z" fill="#080507"/><path d="M69 262c2.4375.5 2.4375.5 4 1l-1 6-5 1 2.875 1.6875c3.21378787 2.37820302 4.08065118 3.55284426 5.125 7.3125-2.64601533 3.72402157-4.46723694 5.99271932-9 7-3.03456921-.14304367-6.00214619-.51668588-9-1-.1875-2.375-.1875-2.375 0-5 3-2 3-2 7-2l-2.9375-1.9375C58 274 58 274 57 273c-.54441566-3.9923815-.3175546-5.55734813 2.0625-8.875 3.64804833-2.63901369 5.52238241-2.60664919 9.9375-2.125Z" fill="#32255D"/><path d="M53 263v7l-5 2 .0703125 2.5546875L48.125 277.875l.0703125 3.3046875C48 284 48 284 46 286c-3.5.25-3.5.25-7 0-2-2-2-2-2.24291992-3.83178711l.01245117-2.19555664.00585937-2.40039063L36.8125 275.0625l.00195312-2.49804688C36.84011035 269.05511556 36.879851 266.36044699 38 263l1.86328125.03515625L42.3125 263.0625l2.42578125.03515625C52.31192661 262.7706422 52.31192661 262.7706422 53 263Z" fill="#322258"/><path d="M167 59v1l-2.1171875.078125L162.125 60.25l-2.7421875.140625c-2.55391794.36548648-2.55391794.36548648-3.703125 2.65625L155 65c1.66342837 1.66342837 3.7825709 1.36048097 6.0625 1.5625l2.78515625.25390625L166 67v8c-10.35070624-1.91780497-20.68262414-3.90984196-31-6v-3c10.89217331-6.8645208 19.31632244-7.90597697 32-7Z" fill="#0BB915"/><path d="M281.01953125 15.15625C284.81024072 16.77122682 286.38873458 20.36556673 288 24c.64012828 3.00581973.92184389 5.93059652 1 9-6.75 4-6.75 4-9 4l1-11c-4.01854549.5098151-4.01854549.5098151-5.23046875 2.99609375L274.8125 31.4375l-.98046875 2.43359375L273 36l-1 2h-2c-2.48847631-3.73271447-2.55318332-7.66961181-2-12 1.97050016-4.56326352 7.6224111-11.26132216 13.01953125-10.84375Z" fill="#0BB815"/><path d="M176 256c2.85026332.30538536 4.05165508 1.04448076 6.25 2.9375 2.50015376 4.37526908 2.40572845 8.13268609 1.75 13.0625-1.50768855 4.14614352-3.00149463 7.00074732-7 9-2.99149977.52791172-5.96951951.81221382-9 1-.22893102-3.03333605-.35414522-5.97366814 0-9 1.875-2.0625 1.875-2.0625 4-3h2c1.33583899-4.84241633 2.25328119-8.93437617 2-14Z" fill="#231A22"/><path d="M218 23v2h-3v2l-2.59375-.03515625c-9.49935311-.06649547-18.99132597.09249657-28.48681641.35354614-1.38453054.03720024-2.76913718.07168622-4.15380859.10321045-12.03399246.28004249-24.15569385.7159183-35.453125 5.20339966C138.25144509 35 138.25144509 35 135 35c1.375-1.5 1.375-1.5 3-3h2l1-3 3.3125-.375c3.76131802-.37964801 3.76131802-.37964801 6.6875-2.625 2.19140625-.37890625 2.19140625-.37890625 4.5625-.5625 3.34407232-.25210438 3.34407232-.25210438 6.4375-1.4375 2.6119059-.0472209 5.20195521-.04293938 7.8125 0 5.07965673.04648121 10.06405904.0019115 15.125-.5 10.97096804-1.0012066 22.05766982-.58009338 33.0625-.5Z" fill="#1A181F"/><path d="m331.01171875 37.70703125 2.29492188.02929688L335.6875 37.8125l2.41601563.04101563C340.06929967 37.88882911 342.03473582 37.94263553 344 38c.29840877 6.29371234-1.38828626 9.94720347-5 15-2.14065794 2.29055084-4.30944873 4.37419295-7 6h-3l-1-6 1.8984375-.953125L332.375 50.75l2.4609375-1.265625C337.20801205 47.85732025 337.97094804 46.64613361 339 44l-3.9375.4375-2.21484375.24609375C330.98859771 44.81886614 330.98859771 44.81886614 330 46c-1.99958364.04080783-4.00045254.04254356-6 0-.36652695-4.52049902-.36652695-4.52049902 1.26098633-6.6496582 2.11260864-1.64043779 3.10692385-1.70294533 5.75073242-1.64331055Z" fill="#0FBA15"/><path d="M175 57c2.48531179 2.48531179 2.83821197 4.45016982 3.8125 7.8125 2.80421402 8.56559919 7.86187326 11.82128444 15.17578125 16.63671875L196 83v2c-5.61923738 1.58491311-9.86878151.47093732-15-2-3.70395392-3.07349368-6.68400255-6.15066709-7.23046875-11.078125C173.869343 66.87684464 174.27341618 61.99526374 175 57Z" fill="#E91B22"/><path d="M290 273c2.57765546 2.57765546 3.2184555 5.36305752 4.3125 8.75 3.4620502 10.33486097 7.93578073 20.23321173 12.3684082 30.17871094l.86009217 1.94552612c.78243251 1.76902436 1.57145098 3.53513151 2.3608551 5.30105591C311 322 311 322 311 325c-1.83837891-.20092773-1.83837891-.20092773-4-1-1.36865234-2.06274414-1.36865234-2.06274414-2.5859375-4.78515625l-1.3737793-3.0246582L301.625 312.9375l-1.46411133-3.30151367C298.75294485 306.43258904 297.37183819 303.2189995 296 300l-1.09228516-2.52539062C291.41171487 289.30362217 288.96956967 282.00672434 290 273Z" fill="#322A31"/><path d="M307 73v5c-6.02031344.60965199-11.94670256 1.13451772-18 1v6h6c-.59015185 5.50808397-1.56663769 10.64878069-3 16h3v7h-3l-1 4h-1l1-10h-2v3h-2c.55907557-4.3328357 2.21948426-7.90677359 4.0625-11.81640625C291.9444557 91.12937194 292.52543629 89.18002705 293 87h-7l-1-3h3v-8c5.89337114-2.94668557 12.52658124-3 19-3Z" fill="#18061A"/><path d="M172 40c1.21693876 2.43387753 1.31959896 4.41838846 1.5625 7.125l.25390625 2.7578125L174 52l-3 2-2 3v-2h-10l8 1v1l-21 1c1-3 1-3 3-5l-6 1c5.55097117-5.55097117 15.30083166-4.93730223 22.6875-5.0625L168 49l4-9Z" fill="#1A0C4D"/><path d="M174 296c2.93322167 1.01145575 3.90928132 1.84872487 5.52734375 4.546875 1.71175325 4.01376623 2.51596837 7.79336481 3.22265625 12.078125l.41796875 2.2734375C183.80401856 318.59670648 184.07910507 321.4126239 183 325c-1.875-.25-1.875-.25-4-1-2.817677-4.57217727-3.26502613-9.92317981-4.1875-15.125l-.57617188-3.07421875-.52929687-2.93359375-.48510742-2.68408203C173 298 173 298 174 296Z" fill="#2D252C"/><path d="M368 260h1v8l3.24609375-.03515625c1.39713368-.00937674 2.79426924-.01847706 4.19140625-.02734375l2.14257812-.02539062C380.38693559 267.90346412 382.19387603 267.94779989 384 268c1 1 1 1 2 9h-18v-17Z" fill="#110710"/><path d="M236 308h20v7c-1 1-1 1-2.85766602 1.11352539l-2.39624023-.01586914-2.58789063-.00976563L245.4375 316.0625l-2.73242188-.01367188C240.46998686 316.03700225 238.23502563 316.0205222 236 316v-8Z" fill="#1E151D"/><path d="m368 307 19 1v8h-19v-9Z" fill="#1A1119"/><path d="M242.37109375 267.86328125 244.5 267.875l2.12890625-.01171875C251.87338622 267.87338622 251.87338622 267.87338622 253 269c.125 3.5.125 3.5 0 7-1 1-1 1-4.59765625 1.09765625-1.48831242-.00667405-2.97660807-.01863442-4.46484375-.03515625l-2.29882813-.01367187C239.75908129 277.0370068 237.87953101 277.01907078 236 277c-.09765625-6.15234375-.09765625-6.15234375 0-8 1.75559942-1.75559942 4.03582442-1.13221919 6.37109375-1.13671875Z" fill="#170F17"/><path d="m269 75 1 4h-5l1 2 4-1c-1.375 1.5-1.375 1.5-3 3h-2l-1 5h-2l-1 3-2-1-2 6h-2c-1.34083354-5.69062425-1.06402191-11.17400576-1-17l15-2v-2Z" fill="#201549"/><path d="M275 84h10l1 2c2.32156597.40729228 4.6568787.74438677 7 1l-1 6-2-4-7 1-3 12h-2l-1 8h-1l.03515625-3.2109375c.00937851-1.38801908.01847864-2.77604005.02734375-4.1640625l.02539062-2.1171875C276.1835442 96.62704624 276.1835442 96.62704624 275 93c-.06950541-1.54023996-.08452357-3.08334988-.0625-4.625l.02734375-2.4765625L275 84Z" fill="#1B0C50"/><path d="M290 273c2.84486545 2.84486545 3.62575722 6.32549308 4.875 10.0625 1.89079029 5.54063073 3.84203911 10.92733854 6.4609375 16.17578125C302 301 302 301 302 305h-2c-.83790789-1.78953185-1.67019396-3.58169695-2.5-5.375l-1.40625-3.0234375C295 294 295 294 295 292h-2c-2.95671348-6.52940894-3.35368021-11.87399867-3-19Z" fill="#332C31"/><path d="M449 268c8.22808411.83613815 14.96512576 6.24807198 20.1875 12.5L471 283l-3 1c-1.98046875-1.00390625-1.98046875-1.00390625-4.1875-2.5625l-2.390625-1.68359375L459 278l-2.296875-1.59765625C453.12456524 273.8490283 450.76210131 272.12632769 449 268Z" fill="#2F252E"/><path d="M156 52v1l-3.3125.8125c-3.90401274.9476961-3.90401274.9476961-6.6875 4.1875l13-2-1-2c1.45823212-.0270043 2.91660675-.04639787 4.375-.0625l2.4609375-.03515625C167 54 167 54 169 55l-1 3-2.9296875.11328125C157.28782671 58.50625826 150.3696632 59.24287894 143 62l-1-7c4.96993194-2.43425238 8.34605369-3.34615998 14-3Z" fill="#06070F"/><path d="M300 50c2.08940868 3.13411302 2.27364412 3.97450472 2.25 7.5625l.015625 2.37890625C302 62 302 62 300 64c-3.625-.375-3.625-.375-7-1v-1l5-1c-.03955898-1.92309422-.03955898-1.92309422-1-4-2.98352894-1.78379415-2.98352894-1.78379415-6-3v-2c3.10217621-1.83832664 5.39408679-2.47446226 9-2Z" fill="#E11A20"/><path d="M85 276.1875c2.33951037.95042609 3.54252583 1.74135249 5 3.8125-.3125 2.1875-.3125 2.1875-1 4h-2v2c-2.80362763.22732116-4.46186517.34081872-6.875-1.1875C79 283 79 283 79.125 280.4375c1.10417091-3.07590468 2.44238757-4.57180742 5.875-4.25Z" fill="#32265B"/><path d="M290 93c.88336837 2.4667645 1.1312406 3.63859372.22265625 6.140625L289.0625 101.25l-1.15234375 2.140625L287 105h2v-3h2c.3125 2.1875.3125 2.1875 0 5-2.375 2.8125-2.375 2.8125-5 5h-2l-1 4h-7l1-4 1 2c2.02463255.65213292 2.02463255.65213292 4 1l.27734375-3.00390625c.62596036-4.38172255 2.3339461-7.99639941 4.28515625-11.93359375l.99804688-2.07226562C288.36517039 96.32268129 289.1813897 94.66073161 290 93Z" fill="#252037"/><path d="m316.125 194.9375 2.8984375.01367188c2.32559008.01162795 4.6510401.0279671 6.9765625.04882812v2l-3.375-.0703125c-11.52455528-.16523571-23.2633635-.14199277-34.39453125 3.203125C285 201 285 201 282 200c1.95410541-.65851515 3.91359316-1.30106198 5.875-1.9375l3.3046875-1.08984375c8.22184158-2.09329095 16.50458214-2.11221348 24.9453125-2.03515625Z" fill="#41366D"/><path d="m155 73 12 2v3l-3.6875.1875c-4.5387866.53538504-6.22350423 2.47304511-9.3125 5.8125-2.8125.8125-2.8125.8125-5 1 3-3 3-3 4.6875-4.3125C155.61394061 78.5669526 155.61394061 78.5669526 155 73Z" fill="#06070B"/><path d="m469 234 2 2c-.375 2.125-.375 2.125-1 4l-.6875-1.9375c-1.12675666-2.27726248-1.12675666-2.27726248-3.53588867-2.68530273-2.87826664-.39100695-5.61070998-.49038391-8.51489258-.47485352l-3.23242187.00976563L450.6875 234.9375l-3.40039062.01367188C444.5246849 234.96292687 441.76237002 234.97935923 439 235c7.17831431-7.17831431 21.54389993-4.05709754 30-1Z" fill="#443F44"/><path d="M275 84h10l1 2c2.32156597.40729228 4.6568787.74438677 7 1l-1 6-2-4-7 1-.3671875 2.15234375L282.125 94.9375l-.4921875 2.77734375L281 100l-2 1c.14063135-2.29199177.28765943-4.58359186.4375-6.875l.24609375-3.8671875C280 87 280 87 281 85h-5l-1 2v-3Z" fill="#3A3843"/><path d="M195 99c1.18100696 3.54302088.47513258 5.52162927-.3984375 9.0625-.89074154 4.34959504-1.32134229 8.75824325-1.7277832 13.17651367C192.39197992 125.7304851 191.23491197 129.08433679 189 133c-1-3-1-3-.0625-5.0625 1.0644033-2.94276205 1.06821637-4.2195537.875-7.25-.21851864-7.57914662 2.73305102-14.62219328 5.1875-21.6875Z" fill="#4E447A"/><path d="M292 108c.91058531 3.07322544 1.08886184 5.80097361 1 9 2.83151973.41809201 2.83151973.41809201 6 0 2.40406384-2.37842577 2.40406384-2.37842577 4-5 .36190476 5.42857143.36190476 5.42857143-1.1875 7.875-2.57820608 1.60026584-3.81370237 1.68291584-6.8125 1.125-2.21568191-1.50499148-4.02706576-3.16471233-6-5l.9375-2.3125c.74143593-1.87539677 1.42478217-3.77434652 2.0625-5.6875Z" fill="#29272F"/><path d="M169 50c-.98046875 1.4921875-.98046875 1.4921875-3 3-2.84619935.19306183-5.47815648.23577298-8.3125.125-5.05182098-.14819837-9.70057229-.15568458-14.6875.875 6.52411661-6.52411661 17.63950671-5.11359029 26-4Z" fill="#403F47"/><path d="m213.75 12.875 3.546875.0546875L220 13l1 6h-7l1-2 4 1v-3h-11v2l2 1h-8c1-3 1-3 2.640625-4.1796875 3.12208424-1.08549287 5.81212901-1.01125742 9.109375-.9453125Z" fill="#494180"/><path d="M368 260h1v8l3.24609375-.03515625c1.39713368-.00937674 2.79426924-.01847706 4.19140625-.02734375l2.14257812-.02539062C380.38693559 267.90346412 382.19387603 267.94779989 384 268c2.04698414 2.04698414 1.70045693 6.30411241 2 9h-3v-7h-15v-10Z" fill="#302B30"/><path d="m202 185 1 2c-1.77065111.64633275-3.54152753 1.2920483-5.3125 1.9375l-2.98828125 1.08984375C192.8079437 190.70885965 190.90715671 191.3642811 189 192c-1.20882096 2.00016466-1.20882096 2.00016466-2 4l3 2c-4.625 2.125-4.625 2.125-8 1 .34761558-2.82437659.84365034-3.85574883 2.96875-5.81640625C190.45988642 189.3957265 195.51547891 186.64462491 202 185Z" fill="#574C81"/><path d="m154.625 26.9375 2.4765625.02734375L159 27c-2.25931094 2.25931094-3.4636274 2.5582542-6.5 3.375-4.66251982 1.31472216-9.03222474 3.01565511-13.46875 4.953125C137 36 137 36 135 35c1.375-1.5 1.375-1.5 3-3h2l1-3 3.375-.4375c3.7744387-.58568876 6.40224674-1.6799679 10.25-1.625Z" fill="#15141B"/><path d="M307 73v5c-1.76813112.24915939-3.53974982.47366632-5.3125.6875l-2.98828125.38671875C296 79 296 79 294.14453125 77.51953125L293 76c1.52430053-1.52430053 3.22798269-1.60192744 5.3125-2.0625l2.36328125-.53515625C303 73 303 73 307 73Z" fill="#0A0306"/><path d="M224 58h1l.40234375 2.5546875L225.9375 63.875l.52734375 3.3046875C226.85551159 69.93821546 226.85551159 69.93821546 228 72l-3-1v-2h-2c-.74957157 3.47147842-.74957157 3.47147842-1 7l4 1-8 2 .8671875-2.5078125c1.22016494-3.76147399 2.25729258-7.54297801 3.2578125-11.3671875l.55078125-2.0859375C223.11891226 61.3598292 223.55970044 59.67997794 224 58Z" fill="#353636"/><path d="M172 40c1.21693876 2.43387753 1.31959896 4.41838846 1.5625 7.125l.25390625 2.7578125L174 52l-3 2-2 3v-2h-2l-1-3 2-2c.57559839-1.50096232 1.09130417-3.02556282 1.5625-4.5625C170.90277778 41.09722222 170.90277778 41.09722222 172 40Z" fill="#120B2E"/><path d="M352 224h1l1 8 31 1v1h-34c0-9 0-9 1-10Z" fill="#787085"/><path d="M132 38h2l.4375 3.25c.46237947 3.54359809.46237947 3.54359809 1.1875 6.125L136 49l-1 1c-.36760731 2.32817964-.70241581 4.6618385-1 7l-2-1c-1.22708371-4.01925024-.93957717-7.66465109-.5625-11.8125l.30859375-3.51953125L132 38Z" fill="#06050B"/><path d="M244 17c3.39608504 1.45546502 5.40860299 3.40860299 8 6 3.09647064 1.93529415 4.13930677 2 8 2 1.7511573-1.4166747 1.7511573-1.4166747 3-3v6c-3.5203345.66144072-6.49599672.81905471-10 0-3.55667652-2.92136974-6.34526695-6.24874678-9-10v-1Z" fill="#514F60"/><path d="M473 372c3.52394445.86140864 5.53856372 1.46413851 7.9375 4.25 2.52363681 6.53176587-1.57133505 13.56495487-3.9375 19.75-1-3-1-3-.0703125-5.29296875 1.26042299-3.18785814 1.27033807-5.60586787 1.1953125-9.01953125l-.0546875-3.23828125L478 376l-6-2 1-2Z" fill="#5D547E"/><path d="M318 94c-1.91403653 4.56264924-5.27331049 7.33468456-8.80859375 10.68359375C307.01748118 106.98152167 305.51660681 109.23499659 304 112l-1-2c8.06441224-16 8.06441224-16 15-16Z" fill="#504B72"/><path d="m288 100 7 1v7h-3l-1 4h-1l1-10h-2v3h-2l1-5Z" fill="#10111A"/><path d="M294 289h3c.84212256 1.91282125 1.67338864 3.83042473 2.5 5.75l1.40625 3.234375C302 301 302 301 302 305h-2c-1.00696568-2.10084209-2.0053589-4.20579489-3-6.3125l-1.6875-3.55078125C294 292 294 292 294 289Z" fill="#1F161E"/><path d="M297.16015625 16.90234375 301.0625 16.9375l3.91015625.02734375L308 17c-1.69179328 2.04219706-2.63727666 2.91793306-5.26171875 3.51171875L300.3125 20.6875l-2.44921875.19921875L296 21l-1 3h-2c-.04254356-1.99954746-.04080783-4.00041636 0-6 1-1 1-1 4.16015625-1.09765625Z" fill="#0D0A1B"/><path d="M295 85c-.59015185 5.50808397-1.56663769 10.64878069-3 16h-3c.75035741-3.11799003 1.63363411-6.18070403 2.5625-9.25l.81640625-2.703125L293 87h-7c3.13498292-1.85776765 5.37471432-2.20140476 9-2Z" fill="#07050B"/><path d="m280 4 2 1c-3.08331507 3.18277685-6.27805483 6.21198779-9.5625 9.1875l-2.25390625 2.04296875C268.18018109 17.85398562 266.34832925 18.96162312 264 20c1.25543424-3.76630271 2.88688863-4.59441394 6-7l2.5-2.5c2.37675345-2.37675345 4.84119332-4.44892056 7.5-6.5Z" fill="#5C5279"/><path d="M294 292c3.42931954 3.7559214 4.56429083 8.23466745 6 13h2l1-2 1 5h-2l1 5c-2.81183572-3.36913649-4.50075001-7.05178335-6.1875-11.0625l-.82617188-1.89257812C294.77075658 297.190309 294 295.13560401 294 292Z" fill="#4D444D"/><path d="m256 83 1.8125 1.5625L260 86l3-1 1 3h-2l-1 3c-1.9375-.625-1.9375-.625-4-2-.75-3.125-.75-3.125-1-6Zm2 7v5l-3 1-1-4c3-2 3-2 4-2Z" fill="#0E0A1F"/><path d="M336 111c-1.53218685 3.63061667-3.7183144 5.9863773-6.5 8.75l-2.40625 2.421875C325 124 325 124 323 124c1.33657024-2.90336311 2.84722571-5.2102811 4.9375-7.625l1.52734375-1.7890625C331.46730938 112.51723255 333.02077132 111 336 111Z" fill="#493E71"/><path d="M372 375c1.33246356.19358433 2.66576322.38154076 4 .5625l3 .4375v2c-5.75.125-5.75.125-8-1-3.41600593-.41692853-3.41600593-.41692853-7 0-2.31377147 1.89584109-2.31377147 1.89584109-4 4h-2c.30022259-2.90215168.83770656-3.85737849 3.0625-5.8125 3.88576559-1.57084141 6.95371506-.94667411 10.9375-.1875Z" fill="#433475"/><path d="m343 32-21 1c1-2 1-2 3.9375-3.1875C331.74391411 28.28576171 337.99792066 28.66528044 343 32Z" fill="#5C4E85"/><path d="M22 265h2v18l-2-4-2-2c.2421875-2.8203125.2421875-2.8203125.875-6.125l.6171875-3.3203125L22 265Z" fill="#5D5382"/><path d="M294 20c1.30993543 2.43273723 2.03955059 4.23730356 2.5 7 2.13070929 4.26141857 5.02455318 4.81733723 9.3828125 6.3359375L308 34c-3.29696105 1.09898702-4.40494903.87124444-7.6875.0625l-2.44921875-.58984375L296 33v-5h-2v-8Z" fill="#56565D"/><path d="m135 377 2 1-3 1-.875 1.75c-1.52112622 3.04225245-3.61213896 4.98842507-6.125 7.25h-2l-1 2c.57997799-3.91485143 2.34178606-6.1262552 5-9 1.95851344-1.39355764 3.95127113-2.74282547 6-4Z" fill="#574A7D"/><path d="M154 148v13h-2v-11l-4 3-2-1c4.625-4 4.625-4 8-4Z" fill="#62527A"/><path d="M280 88c1.10370043 3.3111013.92673641 5.24748949.5625 8.6875l-.30859375 3.01171875L280 102h-2l-1 8h-1c-.02689216-1.47906892-.04634621-2.95827483-.0625-4.4375l-.03515625-2.49609375C276 101 276 101 277 100c.28306234-2.54756104.44815786-5.09510022.62109375-7.65234375C278 90 278 90 280 88Z" fill="#090713"/><path d="M274 436c2.13631287.99185955 3.90328375 1.91582104 5.6875 3.46875 3.07920666 2.03893414 5.94978848 2.51627832 9.5625 3.21875l3.828125.76171875L296 444v1c-6.43553176 1.54929468-10.00236646.65870027-15.7890625-2.51953125C277.52839927 440.68421082 275.71645833 438.73072916 274 436Z" fill="#675C8A"/><path d="M165 97c2.625.375 2.625.375 5 1-1.54545146 5.47932789-4.15543212 10.11429181-7 15-1-3-1-3 .21484375-5.69921875L164.9375 104.3125l1.71484375-3.01171875L168 99h-5l2-2Z" fill="#5F5487"/><path d="m349 177 2 2c-.375 2.125-.375 2.125-1 4l1.6796875-.875L353.875 181l2.1796875-1.125C358 179 358 179 360 179v2c-1.24176695.70226141-2.49385599 1.38629109-3.75 2.0625l-2.109375 1.16015625C351.63859372 185.1312406 350.4667645 184.88336837 348 184c-.04254356-1.99954746-.04080783-4.00041636 0-6l1-1Z" fill="#5D5483"/><path d="M203 76v2l-6 1v5c-2.5-1.8125-2.5-1.8125-5-4v-3c1.45817797-.16802051 2.9165484-.33437143 4.375-.5l2.4609375-.28125C201 76 201 76 203 76Z" fill="#160720"/><path d="M429 262h1l2 17-5-5v-2h2v-10Z" fill="#574E54"/><path d="M462 275c4.2742558 1.5830577 6.26531794 4.50568404 9 8l-3 1c-3.1875-1.9375-3.1875-1.9375-6-4l2-2-2-3Z" fill="#5C555B"/><path d="M168 225h2l1 7 6 1v2c-7.875-.875-7.875-.875-9-2-.14115161-2.67058851-.04247107-5.32432238 0-8Z" fill="#302B35"/><path d="M159 27c-2.57146057 2.57146057-4.6050417 2.80117997-8.125 3.625l-3.3203125.7890625L145 32v-3c4.64849515-2.3992233 8.91086074-2.19957409 14-2Z" fill="#252529"/><path d="M161 183c2.78030572 4.17045858 3.29986321 7.98663274 2.5625 12.9375L163 198c-2.02558881-3.34939881-2.21738987-5.86962551-2.125-9.75l.0546875-2.984375L161 183Z" fill="#544780"/><path d="m223 66 2 3h-2c-.74957157 3.47147842-.74957157 3.47147842-1 7l4 1-8 2c1.41807378-4.47238653 3.11304374-8.71146306 5-13Z" fill="#53535B"/><path d="M216 22h6v2h2v2l-9 1v-2h3v-2l-2-1Z" fill="#040306"/><path d="m143 144 2 1c-5.83098592 5.99295775-5.83098592 5.99295775-9 8h-3v-3l2.1875-.1875c3.65907625-1.05706647 5.30461602-3.01800071 7.8125-5.8125Z" fill="#5A527D"/><path d="M434 377c-1.44077046 3.36179774-3.24750021 5.59156268-6 8h-2c1.51708273-3.53985971 3.75323068-8 8-8Z" fill="#382B74"/><path d="m38 347 2 1c-2.78999451 3.48749314-5.25235831 6.50157221-9 9 .57575664-3.35250701 1.59306263-4.93818629 4.0625-7.25l1.66015625-1.578125L38 347Z" fill="#5D5387"/><path d="m173 147 2 1-1 4h2l2-4c0 3.10551666-.5393715 4.35261084-2 7h-3v-8Z" fill="#51487C"/><path d="M234 18c3.125.375 3.125.375 6 1v3h-7l-1-2 2-2Z" fill="#4B4376"/><path d="m83 441 14 3v1c-4.21107278 1.26332183-6.5456709 1.00441956-10.375-.9375-1.21688424-.67224879-2.4283603-1.35484251-3.625-2.0625v-1Z" fill="#6E6590"/><path d="M297 196v2c-1.93475671.53093324-3.87293155 1.04942317-5.8125 1.5625l-3.26953125.87890625C285 201 285 201 282 200c2.12392506-.6700834 4.24917524-1.33596797 6.375-2l3.5859375-1.125C295 196 295 196 297 196Z" fill="#4C4380"/><path d="M302 112h1c.125 5.75.125 5.75-1 8l-5-1 1.9375-2.375c2.04392313-2.42039281 2.04392313-2.42039281 3.0625-4.625Z" fill="#39393B"/><path d="M294 289h3l2 7h-3c-1.4606285-2.64738916-2-3.89448334-2-7Z" fill="#251D23"/><path d="m140 82 3 2v3l3 1-5 1-1-7Z" fill="#0A0813"/><path d="M299 59h2l1 3-2 2c-3.625-.375-3.625-.375-7-1v-1l2.4375-.375L298 61l1-2Z" fill="#C2171B"/><path d="M138 34c0 4.45351799-1.55160412 7.32740617-4 11l-1-8 5-3Z" fill="#2E2E31"/><path d="m386 443 15 1v1c-10.55808656 1.51708428-10.55808656 1.51708428-15-1v-1Z" fill="#6E658C"/><path d="M170 197h2l-1 9h-2l1-9Z" fill="#22202F"/><path d="M357 112h2l.25 1.875c.56258459 2.30937567.56258459 2.30937567 2.8125 3.375L364 118c-1.8125.625-1.8125.625-4 1l-3-2c-.1875-2.625-.1875-2.625 0-5Z" fill="#574F79"/><path d="m300 93 1 2c-.99609375 2.1640625-.99609375 2.1640625-2.4375 4.625l-1.43359375 2.4765625L296 104h-1c-.3125-2.6875-.3125-2.6875 0-6 2.5-2.875 2.5-2.875 5-5Z" fill="#504861"/><path d="M134 50c2 3 2 3 2 7l2 2-4 1c-1.231394-3.69418201-.64432764-6.2056261 0-10Z" fill="#212026"/><path d="M126 143h1v10l-2 1c-1.26264601-4.29299643-.62950412-6.87831311 1-11Z" fill="#564A78"/><path d="M264 80c3 0 3 0 6 1l-2.375.75c-2.94817108 1.40389099-3.5274777 2.25675737-4.625 5.25v-2l-2-1h2l1-4Z" fill="#3B3A45"/><path d="M172 40c1.53445094 3.06890187.54984289 5.70094266 0 9h-3c.4979837-3.73487777.87491756-5.81237635 3-9Z" fill="#3D3C41"/><path d="M174 411h2c-.42257276 1.4835001-.86356322 2.96176424-1.3125 4.4375l-.73828125 2.49609375L173 420l-3 1 .875-1.625c1.29211808-2.72780484 2.21058592-5.50112718 3.125-8.375Z" fill="#55457B"/><path d="m432 238 2 1c-1.61594832 2.04119788-3.2856382 4.04072937-5 6h-2c1.29299694-2.88437779 2.65941363-4.87219421 5-7Z" fill="#3E2A3D"/><path d="M417 239h7c.625 1.875.625 1.875 1 4l-2 2v-4h-6v-2Z" fill="#F5F9EF"/><path d="m362 171 4 1c.125 2.375.125 2.375 0 5l-2 2c-2.125-.375-2.125-.375-4-1h3c.67958603-2.39719432.67958603-2.39719432 1-5l-2-2Z" fill="#6B6193"/><path d="M179 111h1l-1 11-2-1c.14049518-1.47968324.28754826-2.95874516.4375-4.4375l.24609375-2.49609375C178 112 178 112 179 111Z" fill="#544B7C"/><path d="M307 106h2v2h-2l-.3125 2.375C306 113 306 113 303 115c.64505596-3.48330216 1.98217268-6.09432866 4-9Z" fill="#0A0811"/><path d="M181 94h2v5l-1-2h-2l-2 5-1-2c1.2739589-2.03833424 2.61061923-4.03852126 4-6Z" fill="#463870"/><path d="m150 84-4 4-3-1 1-3c2.57474292-.99667468 3.48927292-1.25536354 6 0Z" fill="#3B3B40"/><path d="M108 344v3c-2.5 2.1875-2.5 2.1875-5 4v-3c2.5-2.1875 2.5-2.1875 5-4Z" fill="#4C4277"/><path d="m135 26 3 1-2.4375.8125L133 29l-1 3-3 1c1.38009621-3.33523252 2.84950652-5.18607951 6-7Z" fill="#615983"/></svg>