<?xml version="1.0" standalone="no"?>
<!DOCTYPE svg PUBLIC "-//W3C//DTD SVG 20010904//EN"
 "http://www.w3.org/TR/2001/REC-SVG-20010904/DTD/svg10.dtd">
<svg version="1.0" xmlns="http://www.w3.org/2000/svg"
 width="500.000000pt" height="490.000000pt" viewBox="0 0 500.000000 490.000000"
 preserveAspectRatio="xMidYMid meet">

<g transform="translate(0.000000,490.000000) scale(0.100000,-0.100000)"
fill="#1e1154" stroke="none">
<path d="M2815 4809 c-64 -48 -124 -111 -146 -151 -16 -31 -25 -38 -50 -38
-40 0 -63 13 -133 77 -71 64 -102 68 -148 23 -16 -16 -33 -30 -38 -30 -4 0
-11 16 -14 35 -11 56 -27 65 -119 65 -71 0 -87 -3 -119 -25 -20 -14 -40 -25
-44 -25 -3 0 -22 14 -41 30 -25 23 -43 30 -74 30 -48 0 -68 -10 -131 -62 -30
-25 -61 -41 -85 -45 -71 -10 -268 -76 -302 -101 -44 -33 -71 -96 -76 -179 -2
-50 1 -79 15 -109 16 -38 16 -43 2 -67 -16 -25 -15 -28 11 -55 19 -20 30 -45
37 -85 5 -30 21 -74 35 -96 l27 -40 -18 -53 c-11 -32 -31 -64 -51 -81 -74 -64
-84 -144 -28 -226 19 -28 35 -55 35 -61 0 -6 -12 -29 -27 -51 -34 -52 -43
-146 -20 -211 9 -24 19 -72 22 -106 8 -82 16 -103 59 -146 33 -32 36 -41 36
-91 0 -94 36 -136 129 -151 34 -5 42 -11 47 -33 3 -14 12 -56 21 -93 l17 -68
38 0 38 0 0 77 c0 94 13 198 50 409 27 158 29 163 81 248 30 48 66 109 82 135
57 102 109 133 278 167 66 13 116 16 239 11 135 -5 165 -3 235 15 112 29 210
22 298 -22 79 -38 264 -177 307 -228 16 -20 47 -80 67 -132 20 -52 49 -121 65
-152 51 -103 60 -156 59 -350 l-1 -178 35 0 c29 0 35 4 35 20 0 33 50 142 81
178 16 18 29 36 29 41 0 4 29 60 65 124 81 143 105 210 112 312 3 48 13 95 24
117 35 69 16 190 -38 250 -14 15 -13 19 6 44 24 31 37 74 46 160 6 55 3 69
-24 132 -17 39 -31 84 -31 102 0 32 -31 103 -51 115 -7 5 -8 24 -4 56 5 37 1
69 -20 141 -50 174 -133 295 -250 364 l-50 29 -195 0 c-126 -1 -211 -5 -240
-14 -25 -6 -52 -14 -61 -17 -11 -3 -20 5 -28 25 -13 30 -47 71 -59 71 -4 0
-25 -14 -47 -31z m-877 -76 c4 -24 -5 -28 -86 -37 -52 -5 -66 14 -31 44 18 15
36 19 69 17 38 -2 45 -5 48 -24z m300 -10 c3 -22 1 -23 -87 -23 -75 0 -91 3
-91 15 0 23 38 34 110 32 59 -2 65 -4 68 -24z m177 -25 c36 -16 31 -28 -14
-28 -40 0 -57 11 -46 30 8 13 28 13 60 -2z m1051 -7 c37 -17 143 -126 132
-136 -2 -3 -38 -1 -79 5 -168 22 -248 11 -293 -39 -24 -27 -34 -26 -98 3 -29
13 -69 27 -89 31 -34 6 -37 10 -49 60 -7 29 -10 60 -7 69 7 18 50 21 282 24
136 1 166 -1 201 -17z m-1178 -76 c29 -10 28 -17 -7 -36 -15 -9 -37 -35 -47
-57 -21 -45 -38 -51 -83 -28 -48 25 -159 46 -246 46 -79 0 -85 -1 -114 -30
-16 -17 -39 -54 -49 -83 l-20 -52 -46 3 c-65 4 -162 -16 -224 -46 -68 -33 -76
-26 -76 77 0 97 14 121 87 155 70 33 126 47 222 56 98 10 571 6 603 -5z m1374
-217 c26 -78 46 -143 44 -145 -1 -2 -29 6 -61 17 -32 11 -80 20 -106 20 -26 0
-50 3 -52 8 -10 14 63 177 88 197 14 12 25 26 25 33 0 38 20 -4 62 -130z
m-1328 -232 c45 -22 40 -27 -53 -51 -70 -18 -83 -15 -57 14 20 22 46 111 46
158 0 75 15 63 20 -17 l5 -85 39 -19z m1274 37 c74 -37 142 -101 142 -136 0
-14 -3 -28 -7 -30 -16 -10 -261 23 -346 46 -105 28 -114 35 -96 73 15 30 48
45 134 62 84 16 114 13 173 -15z m-2059 -108 l46 -11 -55 -32 c-30 -18 -58
-32 -61 -32 -10 0 -37 45 -45 75 -6 26 -6 26 31 19 20 -3 58 -12 84 -19z
m1051 -23 c11 -13 21 -41 21 -61 1 -27 3 -30 6 -11 3 13 19 44 35 68 29 43 32
44 71 38 22 -4 43 -9 47 -11 4 -3 8 -34 9 -70 1 -36 2 -69 3 -73 6 -26 -17
-137 -32 -152 -9 -9 -20 -28 -23 -41 -11 -43 -112 -81 -132 -49 -3 5 1 42 9
82 9 42 12 87 8 106 -7 32 -8 33 -23 15 -9 -10 -24 -54 -34 -98 -23 -110 -34
-125 -91 -125 -25 0 -54 5 -66 11 -17 9 -19 17 -13 57 12 86 46 196 76 245 16
27 29 57 29 67 0 43 67 45 100 2z m-156 9 c3 -5 -3 -19 -13 -32 -38 -49 -78
-166 -107 -315 -4 -22 -30 -34 -76 -34 -27 0 -28 2 -28 55 0 64 29 159 74 241
29 52 38 61 82 76 58 20 61 21 68 9z m850 -60 c28 -29 28 -51 0 -51 -8 0 -36
-11 -62 -24 -65 -33 -113 -89 -166 -193 -31 -63 -36 -66 -75 -52 -53 19 -55
38 -19 130 42 104 100 172 166 193 103 33 122 32 156 -3z m-1517 -6 c51 -22
33 -34 -63 -44 -43 -5 -109 -20 -146 -34 -77 -30 -95 -21 -48 23 65 60 183 86
257 55z m436 -3 c3 -4 -5 -32 -19 -63 -13 -31 -28 -99 -35 -150 -13 -110 -26
-134 -76 -148 -67 -19 -66 -20 -60 68 5 86 31 154 87 236 36 52 89 81 103 57z
m757 -8 c0 -10 -102 -239 -112 -251 -16 -19 -48 -16 -49 5 -2 33 2 68 18 142
23 108 24 110 88 110 30 0 55 -3 55 -6z m490 -4 c19 -5 95 -16 169 -25 165
-19 181 -27 181 -94 0 -79 -18 -154 -41 -173 -25 -21 -92 -24 -129 -5 -16 8
-27 25 -33 49 -10 41 -27 60 -105 119 -55 42 -115 115 -106 130 7 11 20 11 64
-1z m-1445 -67 c-32 -79 -48 -141 -56 -221 -5 -54 -17 -113 -30 -142 -20 -47
-44 -78 -54 -69 -8 9 26 295 41 351 18 61 50 98 86 98 15 0 18 -4 13 -17z
m-153 1 c3 -3 -2 -36 -12 -75 -27 -103 -47 -379 -30 -418 10 -26 10 -35 -6
-62 -11 -18 -24 -34 -30 -36 -12 -4 -34 158 -34 245 0 28 -8 62 -20 85 l-20
37 28 53 c49 89 104 177 112 177 3 0 9 -2 12 -6z m-132 -36 c0 -7 -23 -59 -52
-114 l-52 -101 -91 -47 c-49 -25 -99 -46 -111 -46 -11 0 -31 12 -45 26 -29 31
-33 97 -7 136 48 72 358 198 358 146z m1685 -29 c25 -23 45 -45 45 -49 0 -4
-22 -22 -49 -39 -27 -17 -84 -72 -127 -121 -43 -50 -85 -90 -93 -90 -9 0 -36
17 -60 38 l-44 38 38 73 c56 113 83 148 128 170 68 34 110 28 162 -20z m134
-127 c8 -15 15 -82 12 -119 -1 -7 -8 -13 -16 -13 -40 0 -127 -44 -174 -90 -57
-54 -75 -60 -91 -31 -24 46 -13 71 72 153 117 115 173 144 197 100z m193 -134
c48 -27 70 -73 66 -141 -3 -50 -4 -52 -34 -55 -47 -5 -78 28 -113 119 -41 107
-41 113 7 104 20 -4 54 -16 74 -27z m-2122 -5 c0 -4 -4 -20 -10 -37 -5 -17
-12 -43 -15 -58 -4 -21 -14 -30 -45 -39 -22 -7 -68 -36 -102 -65 -35 -30 -66
-54 -70 -54 -14 0 -8 44 11 85 22 48 101 125 156 153 40 21 75 28 75 15z
m1991 -113 c15 -30 25 -58 22 -62 -2 -5 -23 -8 -46 -8 -49 0 -96 -26 -128 -69
-29 -39 -44 -39 -69 2 -32 52 -26 84 23 132 46 44 93 64 142 62 26 -2 34 -9
56 -57z m-1910 -212 c2 -136 -1 -191 -15 -258 -10 -47 -21 -92 -24 -100 -18
-45 -28 411 -11 506 17 99 20 104 35 62 8 -24 14 -102 15 -210z m-129 80 c3
-94 -1 -111 -37 -148 -18 -19 -47 -62 -63 -94 l-29 -59 -16 24 c-22 34 -33
150 -17 188 12 29 132 141 151 141 5 0 10 -24 11 -52z m2097 -1 c17 -44 17
-109 1 -117 -26 -14 -179 -70 -190 -70 -6 0 -18 16 -26 36 -13 32 -13 38 0 57
36 53 64 78 111 96 68 27 93 26 104 -2z m31 -217 c0 -22 -144 -105 -166 -96
-8 3 -14 19 -14 35 0 36 42 69 109 87 50 13 71 5 71 -26z m-2126 -81 c3 -34 6
-97 6 -140 0 -70 -2 -79 -18 -79 -10 0 -27 6 -38 14 -28 21 -26 152 4 219 11
26 25 47 30 47 5 0 12 -28 16 -61z m2106 -41 c0 -23 -46 -112 -74 -145 -41
-49 -56 -43 -56 20 0 45 4 57 28 79 57 53 102 73 102 46z"/>
<path d="M2022 3001 c-80 -13 -121 -48 -142 -120 -10 -37 -8 -38 34 -6 59 45
105 58 196 58 72 0 104 -7 211 -42 70 -22 132 -41 138 -41 15 0 14 72 -1 93
-33 43 -304 79 -436 58z"/>
<path d="M2975 3004 c-87 -13 -178 -38 -191 -52 -12 -11 -15 -27 -11 -55 3
-21 7 -41 10 -43 2 -2 30 5 63 16 113 39 213 60 287 60 81 0 129 -15 185 -58
l35 -26 -8 34 c-18 91 -68 118 -225 124 -63 2 -128 2 -145 0z"/>
<path d="M2502 2881 c2 -34 8 -56 16 -59 11 -3 12 6 7 44 -10 71 -27 81 -23
15z"/>
<path d="M2727 2923 c-11 -10 -8 -81 3 -88 6 -4 10 13 10 44 0 52 -1 56 -13
44z"/>
<path d="M2561 2850 c9 -56 15 -70 31 -70 16 0 4 100 -13 111 -24 15 -26 10
-18 -41z"/>
<path d="M2648 2889 c-23 -13 -26 -99 -3 -99 20 0 35 32 35 74 0 38 -4 42 -32
25z"/>
<path d="M1540 2092 l0 -299 31 -7 c76 -15 70 -41 67 297 l-3 302 -47 3 -48 3
0 -299z"/>
<path d="M1707 2383 c-4 -3 -7 -138 -7 -298 l0 -292 31 -7 c72 -14 69 -19 69
119 0 123 0 125 23 125 12 0 32 -7 44 -15 19 -13 22 -26 25 -114 1 -55 6 -103
10 -106 4 -4 28 -10 54 -13 42 -4 47 -3 41 12 -4 10 -7 62 -7 115 0 88 -3 102
-25 135 l-25 37 22 30 c18 24 24 47 26 107 3 68 1 81 -20 112 -14 20 -38 40
-58 47 -37 13 -192 18 -203 6z m173 -102 c14 -27 13 -134 -2 -149 -7 -7 -27
-12 -45 -12 l-33 0 0 90 0 90 35 0 c24 0 37 -6 45 -19z"/>
<path d="M2050 2091 l0 -298 31 -7 c17 -3 76 -6 130 -6 l99 0 0 45 0 45 -80 0
-80 0 0 85 0 85 59 0 c33 0 63 5 66 11 4 6 4 26 1 45 -6 31 -10 34 -44 34 -79
0 -82 3 -82 91 l0 79 80 0 80 0 0 45 0 45 -130 0 -130 0 0 -299z"/>
<path d="M2370 2091 l0 -299 23 -6 c60 -16 57 -25 58 202 l1 207 23 -73 c13
-40 38 -128 56 -195 18 -67 39 -128 47 -134 9 -7 33 -13 54 -13 l38 0 -2 303
-3 302 -42 3 -43 3 -1 -168 0 -168 -45 159 c-24 87 -47 162 -50 167 -3 5 -30
9 -60 9 l-54 0 0 -299z"/>
<path d="M2737 2383 c-4 -3 -7 -138 -7 -298 l0 -292 31 -7 c17 -3 75 -6 129
-6 93 0 98 1 102 23 2 12 2 32 0 45 -3 21 -8 22 -83 22 l-79 0 0 85 0 84 63 3
62 3 3 43 3 42 -43 0 c-86 0 -88 2 -88 91 l0 79 80 0 80 0 0 45 0 45 -123 0
c-68 0 -127 -3 -130 -7z"/>
<path d="M3050 2368 c0 -13 3 -53 7 -90 l6 -68 32 0 32 0 6 68 c12 117 13 112
-38 112 -40 0 -45 -2 -45 -22z"/>
<path d="M3265 2381 c-33 -14 -53 -43 -65 -94 -18 -80 1 -126 87 -218 74 -80
93 -111 93 -154 0 -21 -32 -55 -52 -55 -21 0 -48 43 -48 75 0 35 0 35 -45 35
-44 0 -45 -1 -45 -32 0 -56 19 -106 51 -132 25 -21 41 -26 85 -26 102 0 148
47 147 151 -1 71 -10 88 -94 175 -68 71 -89 106 -89 147 0 33 15 50 45 50 31
0 45 -17 45 -55 0 -26 3 -28 45 -28 l45 0 0 43 c0 47 -25 93 -62 113 -26 15
-112 17 -143 5z"/>
<path d="M433 1584 c-49 -18 -123 -80 -154 -130 -12 -20 -64 -156 -116 -302
-107 -302 -121 -373 -88 -459 66 -173 301 -253 530 -182 33 10 74 28 92 38
l32 20 32 -30 c84 -79 238 -72 354 16 l35 27 30 -25 c100 -85 308 -97 458 -27
l64 30 36 -30 c75 -59 178 -61 265 -4 l38 25 29 -25 c41 -34 128 -51 196 -38
37 8 60 8 81 0 16 -6 42 -8 58 -4 56 14 76 50 160 290 67 191 86 236 115 267
40 42 82 58 105 39 23 -19 19 -37 -39 -198 -63 -177 -70 -209 -56 -261 34
-126 188 -175 331 -104 54 27 66 30 79 19 48 -42 105 -54 230 -49 19 1 56 1
83 0 76 -2 94 24 172 243 95 268 103 286 146 325 43 38 69 44 93 19 20 -19 18
-28 -46 -204 -62 -168 -69 -222 -39 -284 26 -52 66 -81 137 -97 62 -14 147 1
200 37 33 23 38 24 54 9 9 -8 34 -24 56 -34 l39 -19 -45 -11 c-188 -49 -285
-149 -265 -277 9 -61 53 -117 119 -149 51 -25 64 -27 139 -23 164 9 238 79
312 295 l28 81 73 27 c131 48 239 129 308 233 96 146 112 248 40 266 -51 13
-82 -10 -126 -97 -44 -88 -115 -170 -177 -205 -23 -13 -41 -20 -41 -17 0 4 39
116 86 249 104 289 107 300 89 342 -11 26 -21 34 -49 40 -42 7 -92 -10 -107
-37 -9 -17 -11 -17 -45 6 -63 43 -165 45 -244 5 -73 -37 -102 -86 -169 -279
-34 -98 -74 -194 -88 -215 -52 -72 -144 -101 -151 -48 -2 13 23 96 55 185 64
180 72 237 38 295 -46 78 -162 114 -249 78 -34 -14 -40 -14 -59 -1 -29 20 -90
19 -116 -2 -13 -12 -52 -106 -110 -268 -79 -219 -94 -254 -125 -283 -26 -23
-45 -32 -71 -32 -66 0 -65 15 25 273 63 179 80 239 75 264 -12 65 -94 85 -144
35 -30 -29 -35 -43 -126 -307 -55 -158 -62 -173 -107 -218 -43 -43 -52 -48
-86 -45 -26 2 -38 8 -40 20 -2 10 24 97 59 193 52 149 61 182 57 225 -12 121
-153 196 -274 145 -32 -13 -38 -13 -57 0 -12 8 -36 15 -54 15 -61 0 -76 -26
-168 -285 -78 -219 -89 -243 -125 -278 -34 -32 -46 -38 -78 -35 -29 2 -38 8
-40 24 -2 12 34 128 79 258 86 248 89 267 47 306 -30 28 -96 27 -132 -1 -24
-19 -31 -20 -54 -10 -14 7 -57 15 -94 18 -59 5 -73 3 -123 -22 -36 -17 -65
-40 -80 -63 -13 -21 -54 -120 -89 -222 -71 -201 -80 -215 -175 -261 -58 -29
-172 -37 -223 -16 -49 21 -72 57 -65 103 8 47 10 48 44 31 75 -38 181 -28 260
26 101 69 140 215 84 314 -90 158 -358 146 -456 -20 -13 -24 -48 -110 -76
-192 -68 -199 -123 -275 -200 -275 -59 0 -58 3 96 451 97 280 144 431 140 446
-13 54 -82 81 -136 53 -28 -16 -36 -35 -169 -415 -67 -192 -128 -361 -135
-376 -20 -39 -101 -108 -153 -132 -66 -29 -162 -29 -225 2 -60 29 -90 71 -90
125 1 52 176 542 205 573 29 31 81 47 108 33 23 -12 27 -66 9 -118 -22 -63 45
-125 113 -106 45 13 86 69 99 136 23 115 -19 215 -107 259 -62 30 -196 37
-261 13z m1057 -514 c37 -37 19 -110 -31 -131 -26 -10 -94 -7 -106 5 -10 10
30 102 54 124 30 27 57 28 83 2z m3015 -5 c14 -13 25 -34 25 -47 0 -12 -23
-88 -52 -167 -62 -171 -92 -211 -159 -211 -70 0 -70 18 6 230 41 115 73 192
86 203 30 24 66 21 94 -8z m-2431 -4 c10 -11 18 -35 18 -54 0 -36 -64 -252
-88 -299 -32 -62 -95 -88 -124 -53 -16 19 -11 41 46 221 59 187 100 238 148
185z m2191 -760 c-32 -93 -69 -127 -127 -119 -30 4 -37 55 -11 86 15 19 121
71 145 72 4 0 1 -17 -7 -39z"/>
<path d="M3329 1541 c-64 -64 -18 -181 71 -181 37 0 81 30 96 67 43 103 -88
193 -167 114z"/>
</g>
</svg>
